<?xml version="1.0" encoding="utf-8"?>
<!-- Generator: Adobe Illustrator 15.0.2, SVG Export Plug-In . SVG Version: 6.00 Build 0)  -->
<!DOCTYPE svg PUBLIC "-//W3C//DTD SVG 1.1//EN" "http://www.w3.org/Graphics/SVG/1.1/DTD/svg11.dtd">
<svg version="1.1" id="Ebene_1" xmlns="http://www.w3.org/2000/svg" xmlns:xlink="http://www.w3.org/1999/xlink" x="0px" y="0px"
	 width="285.15px" height="2000px" viewBox="0 0 285.15 2000" enable-background="new 0 0 285.15 2000" xml:space="preserve">
<line fill="none" stroke="#ED1A2E" stroke-width="1.0217" stroke-miterlimit="10" x1="0" y1="1800.498" x2="285.146" y2="1800.498"/>
<g>
	<path fill="#ED1A2E" d="M113.252,1788.711l0.01,7.793h-0.391v-8.994h0.244l3.408,7.334l3.408-7.334h0.254v8.994h-0.4l0.01-7.793
		l-3.096,6.562h-0.352L113.252,1788.711z"/>
	<path fill="#ED1A2E" d="M122.226,1791.025v-0.322c0.332-0.127,1.016-0.254,1.729-0.254c1.836,0,2.197,0.742,2.197,1.914v4.141
		h-0.186l-0.166-0.469c-0.508,0.361-1.426,0.527-2.031,0.527c-1.543,0-2.08-0.879-2.08-1.836c0-0.908,0.43-1.719,2.1-1.816
		l1.973-0.127v-0.43c0-1.123-0.361-1.582-1.807-1.582C123.105,1790.771,122.451,1790.937,122.226,1791.025z M123.642,1793.242
		c-1.211,0.078-1.582,0.693-1.582,1.484c0,0.713,0.273,1.514,1.738,1.514c0.752,0,1.436-0.225,1.963-0.557v-2.588L123.642,1793.242z
		"/>
	<path fill="#ED1A2E" d="M127.539,1796.504h-0.43l2.197-3.096l-2.051-2.9h0.42l1.826,2.637l1.816-2.637h0.42l-2.051,2.9l2.197,3.096
		h-0.43l-1.953-2.812L127.539,1796.504z"/>
	<path fill="#ED1A2E" d="M133.203,1795.84c0.195,0,0.361,0.176,0.361,0.361c0,0.205-0.166,0.361-0.361,0.361
		c-0.205,0-0.352-0.156-0.352-0.361C132.842,1796.015,132.998,1795.84,133.203,1795.84z"/>
	<path fill="#ED1A2E" d="M137.119,1790.508l2.041,5.488l2.051-5.488h0.42l-3.516,8.994h-0.41l1.279-3.057l-2.295-5.938H137.119
		L137.119,1790.508z"/>
	<path fill="#ED1A2E" d="M146.924,1795.937v0.322c-0.469,0.186-1.26,0.303-1.914,0.303c-1.982,0-2.48-1.27-2.48-3.057
		s0.498-3.057,2.48-3.057c1.992,0,2.207,1.289,2.207,3.057v0.166H142.9c0.029,1.357,0.4,2.568,2.109,2.568
		C145.898,1796.24,146.474,1796.084,146.924,1795.937z M146.855,1793.34c0-1.309-0.127-2.568-1.846-2.568
		c-1.709,0-2.08,1.211-2.109,2.568H146.855z"/>
	<path fill="#ED1A2E" d="M149.14,1791.025v-0.322c0.342-0.127,1.016-0.254,1.729-0.254c1.836,0,2.197,0.742,2.197,1.914v4.141
		h-0.186l-0.166-0.469c-0.508,0.361-1.426,0.527-2.031,0.527c-1.543,0-2.08-0.879-2.08-1.836c0-0.908,0.43-1.719,2.1-1.816
		l1.973-0.127v-0.43c0-1.123-0.352-1.582-1.807-1.582C150.019,1790.771,149.365,1790.937,149.14,1791.025z M150.556,1793.242
		c-1.211,0.078-1.582,0.693-1.582,1.484c0,0.713,0.273,1.514,1.738,1.514c0.752,0,1.436-0.225,1.963-0.557v-2.588L150.556,1793.242z
		"/>
	<path fill="#ED1A2E" d="M157.734,1790.81c-0.166-0.029-0.361-0.039-0.566-0.039c-0.84,0-1.553,0.156-2.1,0.488v5.244h-0.381v-5.996
		h0.176l0.176,0.469c0.527-0.342,1.445-0.527,2.129-0.527c0.205,0,0.4,0.01,0.566,0.039V1790.81L157.734,1790.81z"/>
	<path fill="#ED1A2E" d="M160.195,1796.562c-0.635,0-0.918-0.283-0.918-0.879v-8.174h0.361v8.154c0,0.449,0.117,0.605,0.557,0.605
		V1796.562L160.195,1796.562z"/>
	<path fill="#ED1A2E" d="M161.709,1790.508l2.041,5.488l2.041-5.488h0.42l-3.506,8.994h-0.41l1.279-3.057l-2.305-5.938H161.709
		L161.709,1790.508z"/>
	<path fill="#ED1A2E" d="M169.756,1791.025v-0.322c0.342-0.127,1.025-0.254,1.729-0.254c1.836,0,2.197,0.742,2.197,1.914v4.141
		h-0.186l-0.166-0.469c-0.498,0.361-1.426,0.527-2.021,0.527c-1.553,0-2.09-0.879-2.09-1.836c0-0.908,0.43-1.719,2.1-1.816
		l1.973-0.127v-0.43c0-1.123-0.352-1.582-1.807-1.582C170.635,1790.771,169.99,1790.937,169.756,1791.025z M171.172,1793.242
		c-1.211,0.078-1.582,0.693-1.582,1.484c0,0.713,0.273,1.514,1.738,1.514c0.752,0,1.445-0.225,1.973-0.557v-2.588L171.172,1793.242z
		"/>
	<path fill="#ED1A2E" d="M175.195,1790.508l2.041,5.42l2.051-5.42h0.42l-2.393,6.055h-0.166l-2.383-6.055H175.195z"/>
	<path fill="#ED1A2E" d="M184.873,1795.937v0.322c-0.469,0.186-1.26,0.303-1.904,0.303c-1.992,0-2.48-1.27-2.48-3.057
		s0.488-3.057,2.48-3.057s2.207,1.289,2.207,3.057v0.166h-4.316c0.02,1.357,0.391,2.568,2.109,2.568
		C183.857,1796.24,184.433,1796.084,184.873,1795.937z M184.814,1793.34c0-1.309-0.127-2.568-1.846-2.568s-2.09,1.211-2.109,2.568
		H184.814z"/>
	<path fill="#ED1A2E" d="M189.785,1790.81c-0.166-0.029-0.361-0.039-0.566-0.039c-0.84,0-1.553,0.156-2.1,0.488v5.244h-0.381v-5.996
		h0.176l0.176,0.469c0.527-0.342,1.445-0.527,2.129-0.527c0.205,0,0.4,0.01,0.566,0.039V1790.81L189.785,1790.81z"/>
	<path fill="#ED1A2E" d="M191.103,1791.025v-0.322c0.342-0.127,1.025-0.254,1.729-0.254c1.836,0,2.197,0.742,2.197,1.914v4.141
		h-0.186l-0.166-0.469c-0.508,0.361-1.426,0.527-2.021,0.527c-1.553,0-2.09-0.879-2.09-1.836c0-0.908,0.43-1.719,2.1-1.816
		l1.982-0.127v-0.43c0-1.123-0.361-1.582-1.816-1.582C191.982,1790.771,191.338,1790.937,191.103,1791.025z M192.519,1793.242
		c-1.211,0.078-1.582,0.693-1.582,1.484c0,0.713,0.273,1.514,1.738,1.514c0.752,0,1.445-0.225,1.973-0.557v-2.588L192.519,1793.242z
		"/>
	<path fill="#ED1A2E" d="M197.636,1794.531c-0.254,0.156-0.449,0.361-0.449,0.703c0,0.41,0.361,0.488,0.645,0.527l2.539,0.352
		c1.055,0.137,1.455,0.625,1.455,1.504c0,1.396-1.514,1.943-3.164,1.943c-1.66,0-2.705-0.42-2.705-1.699
		c0-0.986,0.811-1.592,1.621-1.826c-0.508-0.078-0.732-0.352-0.732-0.801c0-0.391,0.234-0.635,0.498-0.82
		c-0.625-0.342-0.84-0.996-0.84-1.846c0-1.299,0.518-2.119,2.188-2.119c0.264,0,0.488,0.02,0.703,0.059h2.07v0.322l-1.309-0.029
		c0.527,0.361,0.713,0.986,0.713,1.768c0,1.299-0.518,2.129-2.178,2.129C198.252,1794.687,197.92,1794.648,197.636,1794.531z
		 M198.662,1799.238c1.445,0,2.793-0.43,2.793-1.621c0-0.723-0.273-1.074-1.143-1.191l-2.236-0.303
		c-0.713,0.205-1.748,0.684-1.748,1.738C196.328,1798.926,197.158,1799.238,198.662,1799.238z M196.855,1792.568
		c0,0.947,0.273,1.816,1.836,1.816c1.553,0,1.836-0.869,1.836-1.816s-0.283-1.807-1.836-1.807
		C197.129,1790.761,196.855,1791.621,196.855,1792.568z"/>
	<path fill="#ED1A2E" d="M207.041,1795.937v0.322c-0.469,0.186-1.26,0.303-1.904,0.303c-1.992,0-2.49-1.27-2.49-3.057
		s0.498-3.057,2.49-3.057c1.982,0,2.197,1.289,2.197,3.057v0.166h-4.316c0.029,1.357,0.4,2.568,2.119,2.568
		C206.025,1796.24,206.592,1796.084,207.041,1795.937z M206.982,1793.34c0-1.309-0.137-2.568-1.846-2.568
		c-1.719,0-2.09,1.211-2.119,2.568H206.982z"/>
	<path fill="#ED1A2E" d="M214.707,1788.261l-2.168,8.301h-0.312l-2.07-9.053h0.4l1.826,8.33l2.158-8.33h0.332l2.158,8.33l1.826-8.33
		h0.391l-2.061,9.053h-0.312L214.707,1788.261z"/>
	<path fill="#ED1A2E" d="M225.937,1796.504v-4.492h-5.156v4.492H220.4v-8.994h0.381v4.16h5.156v-4.16h0.381v8.994H225.937z"/>
	<path fill="#ED1A2E" d="M231.113,1796.562c-2.871,0-3.291-1.816-3.291-4.551c0-2.744,0.42-4.561,3.291-4.561
		c2.881,0,3.281,1.816,3.281,4.561C234.394,1794.746,233.994,1796.562,231.113,1796.562z M231.113,1787.793
		c-2.471,0-2.9,1.455-2.9,4.219c0,2.754,0.43,4.199,2.9,4.199s2.9-1.445,2.9-4.199
		C234.013,1789.248,233.584,1787.793,231.113,1787.793z"/>
	<path fill="#ED1A2E" d="M243.769,1788.886v7.617h-0.84v-6.758l-1.611,0.068v-0.322l2.1-0.605H243.769L243.769,1788.886z"/>
	<path fill="#ED1A2E" d="M245.801,1792.754c0-2.49,0.586-3.867,2.783-3.867s2.783,1.387,2.783,3.867s-0.586,3.867-2.783,3.867
		S245.801,1795.234,245.801,1792.754z M250.517,1792.754c0-1.992-0.391-3.125-1.934-3.125s-1.934,1.133-1.934,3.125
		c0,2.012,0.391,3.125,1.934,3.125S250.517,1794.765,250.517,1792.754z"/>
	<path fill="#ED1A2E" d="M255.625,1794.863c0,0.781,0.459,1.016,1.201,1.016c0.781,0,1.182-0.127,1.621-0.381v-4.99h0.84v5.996
		h-0.469l-0.176-0.508c-0.566,0.43-1.182,0.625-1.816,0.625c-0.498,0-0.898-0.078-1.201-0.225v3.105h-0.84v-8.994h0.84V1794.863
		L255.625,1794.863z"/>
	<path fill="#ED1A2E" d="M261.885,1794.824c-0.137,0.137-0.234,0.303-0.234,0.439c0,0.303,0.146,0.439,0.459,0.469l2.041,0.244
		c1.123,0.117,1.641,0.566,1.641,1.602c0,1.465-1.465,2.041-3.115,2.041c-1.68,0-2.686-0.488-2.686-1.807
		c0-0.82,0.557-1.357,1.23-1.582v-0.02c-0.225-0.156-0.381-0.391-0.381-0.791c0-0.332,0.205-0.605,0.449-0.811
		c-0.713-0.4-0.957-1.133-0.957-1.973c0-1.23,0.527-2.246,2.344-2.246c0.371,0,0.684,0.039,0.957,0.117h2.041v0.449l-1.006,0.293
		c0.244,0.381,0.342,0.859,0.342,1.387c0,1.23-0.527,2.256-2.334,2.256C262.373,1794.892,262.109,1794.873,261.885,1794.824z
		 M262.226,1796.445c-0.791,0.176-1.465,0.547-1.465,1.318c0,0.889,0.674,1.133,1.914,1.133c1.191,0,2.324-0.293,2.324-1.318
		c0-0.605-0.283-0.85-1.016-0.928L262.226,1796.445z M264.228,1792.636c0-0.781-0.156-1.514-1.553-1.514
		c-1.406,0-1.562,0.732-1.562,1.514c0,0.801,0.156,1.523,1.562,1.523C264.072,1794.16,264.228,1793.437,264.228,1792.636z"/>
	<path fill="#ED1A2E" d="M265.713,1798.974l4.16-12.256h0.879l-4.17,12.256H265.713z"/>
	<path fill="#ED1A2E" d="M278.427,1792.148c0-0.781-0.459-1.016-1.143-1.016c-0.742,0-1.152,0.137-1.631,0.391
		c0.049,0.195,0.078,0.4,0.078,0.625v4.355h-0.85v-4.355c0-0.781-0.449-1.016-1.133-1.016c-0.693,0-1.094,0.117-1.562,0.352v5.02
		h-0.84v-5.996h0.469l0.186,0.488c0.576-0.42,1.191-0.605,1.748-0.605c0.801,0,1.367,0.225,1.68,0.684
		c0.625-0.439,1.26-0.684,1.855-0.684c1.289,0,1.982,0.596,1.982,1.797v4.316h-0.84V1792.148L278.427,1792.148z"/>
	<path fill="#ED1A2E" d="M280.527,1792.265v-0.742c0.85,0.254,1.475,0.273,1.953,0.273c0.947,0,1.436-0.312,1.436-0.811
		c0-0.586-0.244-0.791-1.084-0.791h-1.406v-0.693h1.396c0.703,0,0.898-0.244,0.898-0.713c0-0.41-0.4-0.654-1.26-0.654
		c-0.605,0-1.084,0.049-1.846,0.234v-0.732c0.42-0.166,1.133-0.244,1.836-0.244c1.367,0,2.041,0.479,2.041,1.396
		c0,0.518-0.254,0.84-0.508,0.967c0.391,0.137,0.742,0.547,0.742,1.24c0,0.918-0.732,1.543-2.256,1.543
		C281.777,1792.529,280.947,1792.441,280.527,1792.265z"/>
</g>
<line fill="none" stroke="#ED1A2E" stroke-width="1.0217" stroke-miterlimit="10" x1="0" y1="1500.498" x2="285.146" y2="1500.498"/>
<g>
	<path fill="#ED1A2E" d="M120.908,1487.705l0.01,7.803h-0.41v-8.994h0.264l3.555,7.324l3.555-7.324h0.264v8.994h-0.41l0.01-7.803
		l-3.232,6.562h-0.371L120.908,1487.705z"/>
	<path fill="#ED1A2E" d="M130.273,1490.019v-0.322c0.352-0.117,1.064-0.244,1.807-0.244c1.914,0,2.295,0.742,2.295,1.914v4.141
		h-0.186l-0.176-0.469c-0.527,0.352-1.494,0.527-2.119,0.527c-1.621,0-2.188-0.879-2.188-1.836c0-0.918,0.459-1.719,2.197-1.826
		l2.061-0.117v-0.43c0-1.133-0.371-1.592-1.885-1.592C131.191,1489.775,130.517,1489.941,130.273,1490.019z M131.758,1492.246
		c-1.27,0.078-1.66,0.693-1.66,1.484c0,0.703,0.293,1.514,1.816,1.514c0.791,0,1.504-0.234,2.061-0.557v-2.588L131.758,1492.246z"/>
	<path fill="#ED1A2E" d="M135.83,1495.508h-0.459l2.295-3.096l-2.139-2.9h0.439l1.904,2.637l1.904-2.637h0.43l-2.139,2.9
		l2.295,3.096h-0.449l-2.051-2.822L135.83,1495.508z"/>
	<path fill="#ED1A2E" d="M141.738,1494.844c0.205,0,0.381,0.166,0.381,0.361c0,0.205-0.176,0.361-0.381,0.361
		c-0.215,0-0.371-0.156-0.371-0.361C141.367,1495.01,141.523,1494.844,141.738,1494.844z"/>
	<path fill="#ED1A2E" d="M145.791,1489.511l2.041,5.488l2.051-5.488h0.41l-3.506,8.994h-0.41l1.279-3.057l-2.305-5.938H145.791
		L145.791,1489.511z"/>
	<path fill="#ED1A2E" d="M155.586,1494.941v0.322c-0.469,0.186-1.26,0.303-1.904,0.303c-1.992,0-2.48-1.279-2.48-3.057
		c0-1.787,0.488-3.066,2.48-3.066s2.207,1.299,2.207,3.066v0.166h-4.316c0.02,1.348,0.391,2.559,2.109,2.559
		C154.57,1495.244,155.146,1495.088,155.586,1494.941z M155.527,1492.344c0-1.309-0.127-2.568-1.846-2.568s-2.09,1.211-2.109,2.568
		H155.527z"/>
	<path fill="#ED1A2E" d="M157.812,1490.019v-0.322c0.332-0.117,1.016-0.244,1.729-0.244c1.836,0,2.197,0.742,2.197,1.914v4.141
		h-0.186l-0.166-0.469c-0.508,0.352-1.426,0.527-2.031,0.527c-1.543,0-2.08-0.879-2.08-1.836c0-0.918,0.43-1.719,2.09-1.826
		l1.982-0.117v-0.43c0-1.133-0.361-1.592-1.807-1.592C158.691,1489.775,158.037,1489.941,157.812,1490.019z M159.228,1492.246
		c-1.211,0.078-1.582,0.693-1.582,1.484c0,0.703,0.273,1.514,1.738,1.514c0.752,0,1.436-0.234,1.963-0.557v-2.588L159.228,1492.246z
		"/>
	<path fill="#ED1A2E" d="M166.406,1489.804c-0.176-0.02-0.361-0.029-0.566-0.029c-0.84,0-1.562,0.146-2.1,0.488v5.244h-0.381v-5.996
		h0.176l0.166,0.469c0.527-0.342,1.455-0.527,2.139-0.527c0.205,0,0.4,0.01,0.566,0.029V1489.804L166.406,1489.804z"/>
	<path fill="#ED1A2E" d="M168.867,1495.566c-0.635,0-0.918-0.293-0.918-0.879v-8.184h0.361v8.154c0,0.459,0.117,0.615,0.557,0.615
		V1495.566L168.867,1495.566z"/>
	<path fill="#ED1A2E" d="M170.371,1489.511l2.041,5.488l2.051-5.488h0.42l-3.516,8.994h-0.41l1.289-3.057l-2.305-5.938H170.371
		L170.371,1489.511z"/>
	<path fill="#ED1A2E" d="M178.427,1490.019v-0.322c0.332-0.117,1.016-0.244,1.729-0.244c1.836,0,2.197,0.742,2.197,1.914v4.141
		h-0.186l-0.166-0.469c-0.508,0.352-1.426,0.527-2.031,0.527c-1.543,0-2.08-0.879-2.08-1.836c0-0.918,0.43-1.719,2.1-1.826
		l1.973-0.117v-0.43c0-1.133-0.352-1.592-1.807-1.592C179.306,1489.775,178.652,1489.941,178.427,1490.019z M179.844,1492.246
		c-1.211,0.078-1.582,0.693-1.582,1.484c0,0.703,0.273,1.514,1.738,1.514c0.752,0,1.436-0.234,1.963-0.557v-2.588L179.844,1492.246z
		"/>
	<path fill="#ED1A2E" d="M183.867,1489.511l2.031,5.42l2.051-5.42h0.42l-2.383,6.055h-0.166l-2.393-6.055H183.867z"/>
	<path fill="#ED1A2E" d="M193.545,1494.941v0.322c-0.469,0.186-1.26,0.303-1.904,0.303c-1.992,0-2.48-1.279-2.48-3.057
		c0-1.787,0.488-3.066,2.48-3.066s2.207,1.299,2.207,3.066v0.166h-4.316c0.02,1.348,0.391,2.559,2.109,2.559
		C192.529,1495.244,193.105,1495.088,193.545,1494.941z M193.486,1492.344c0-1.309-0.137-2.568-1.846-2.568
		c-1.719,0-2.09,1.211-2.109,2.568H193.486z"/>
	<path fill="#ED1A2E" d="M198.457,1489.804c-0.176-0.02-0.361-0.029-0.566-0.029c-0.84,0-1.562,0.146-2.1,0.488v5.244h-0.381v-5.996
		h0.176l0.166,0.469c0.527-0.342,1.455-0.527,2.139-0.527c0.205,0,0.4,0.01,0.566,0.029V1489.804L198.457,1489.804z"/>
	<path fill="#ED1A2E" d="M199.775,1490.019v-0.322c0.332-0.117,1.016-0.244,1.729-0.244c1.836,0,2.197,0.742,2.197,1.914v4.141
		h-0.186l-0.166-0.469c-0.508,0.352-1.426,0.527-2.031,0.527c-1.543,0-2.08-0.879-2.08-1.836c0-0.918,0.43-1.719,2.1-1.826
		l1.973-0.117v-0.43c0-1.133-0.352-1.592-1.807-1.592C200.654,1489.775,200,1489.941,199.775,1490.019z M201.191,1492.246
		c-1.211,0.078-1.582,0.693-1.582,1.484c0,0.703,0.273,1.514,1.738,1.514c0.752,0,1.436-0.234,1.963-0.557v-2.588L201.191,1492.246z
		"/>
	<path fill="#ED1A2E" d="M206.299,1493.535c-0.244,0.156-0.439,0.361-0.439,0.703c0,0.4,0.361,0.488,0.645,0.518l2.529,0.352
		c1.055,0.146,1.465,0.635,1.465,1.514c0,1.387-1.523,1.943-3.164,1.943c-1.67,0-2.705-0.42-2.705-1.709
		c0-0.977,0.811-1.582,1.611-1.816c-0.498-0.088-0.732-0.361-0.732-0.801c0-0.391,0.244-0.645,0.508-0.82
		c-0.625-0.352-0.84-0.996-0.84-1.846c0-1.299,0.518-2.119,2.188-2.119c0.264,0,0.488,0.02,0.703,0.059h2.061v0.322l-1.309-0.029
		c0.537,0.361,0.723,0.986,0.723,1.768c0,1.299-0.518,2.119-2.178,2.119C206.924,1493.691,206.592,1493.642,206.299,1493.535z
		 M207.334,1498.242c1.445,0,2.793-0.43,2.793-1.621c0-0.723-0.273-1.084-1.152-1.201l-2.227-0.303
		c-0.723,0.205-1.748,0.684-1.748,1.738C205,1497.929,205.82,1498.242,207.334,1498.242z M205.527,1491.572
		c0,0.947,0.273,1.807,1.836,1.807c1.553,0,1.826-0.859,1.826-1.807s-0.273-1.816-1.826-1.816
		C205.801,1489.756,205.527,1490.625,205.527,1491.572z"/>
	<path fill="#ED1A2E" d="M215.713,1494.941v0.322c-0.469,0.186-1.26,0.303-1.914,0.303c-1.982,0-2.48-1.279-2.48-3.057
		c0-1.787,0.498-3.066,2.48-3.066c1.992,0,2.207,1.299,2.207,3.066v0.166h-4.316c0.029,1.348,0.4,2.559,2.109,2.559
		C214.687,1495.244,215.263,1495.088,215.713,1494.941z M215.654,1492.344c0-1.309-0.137-2.568-1.855-2.568
		c-1.709,0-2.08,1.211-2.109,2.568H215.654z"/>
	<path fill="#ED1A2E" d="M224.394,1491.006h-4.346v4.15h4.814v0.352h-5.215v-8.994h5.215v0.342h-4.814v3.818h4.346V1491.006z"/>
	<path fill="#ED1A2E" d="M232.412,1492.578v-6.074h0.391v6.084c0,2.49-1.475,2.979-3.223,2.979c-1.738,0-3.213-0.488-3.213-2.979
		v-6.084h0.381v6.074c0,2.07,1.006,2.637,2.832,2.637C231.416,1495.215,232.412,1494.648,232.412,1492.578z"/>
	<path fill="#ED1A2E" d="M240.722,1488.633c-0.771,0-1.484,0.186-1.982,0.361v-0.771c0.459-0.176,1.377-0.332,1.992-0.332
		c2.256,0,2.695,1.064,2.695,2.119c0,1.357-0.547,2.1-3.975,4.746h4.121v0.752h-5.322v-0.576c3.955-2.91,4.307-3.926,4.307-4.932
		C242.558,1489.111,242.099,1488.633,240.722,1488.633z"/>
	<path fill="#ED1A2E" d="M249.17,1494.209c0-1.826-1.26-1.807-2.471-1.807h-1.758v-4.395h4.951v0.742h-4.102v2.939
		c0.391-0.039,0.85-0.059,1.191-0.059c1.514,0,3.096,0.283,3.096,2.578c0,2.588-2.031,2.91-3.457,2.91
		c-0.918,0-1.631-0.176-2.07-0.381v-0.742c0.459,0.166,1.113,0.381,2.08,0.381C247.685,1496.377,249.17,1496.094,249.17,1494.209z"
		/>
	<path fill="#ED1A2E" d="M254.101,1493.857c0,0.781,0.469,1.025,1.25,1.025c0.811,0,1.23-0.137,1.689-0.391v-4.98h0.879v5.996
		h-0.488l-0.186-0.508c-0.596,0.42-1.23,0.625-1.895,0.625c-0.527,0-0.938-0.088-1.25-0.234v3.105h-0.879v-8.984h0.879V1493.857
		L254.101,1493.857z"/>
	<path fill="#ED1A2E" d="M260.625,1493.828c-0.137,0.127-0.234,0.293-0.234,0.439c0,0.303,0.146,0.43,0.469,0.469l2.129,0.244
		c1.182,0.117,1.719,0.557,1.719,1.602c0,1.465-1.523,2.041-3.252,2.041c-1.758,0-2.812-0.498-2.812-1.807
		c0-0.82,0.596-1.357,1.289-1.592v-0.01c-0.234-0.156-0.4-0.391-0.4-0.791c0-0.342,0.215-0.615,0.479-0.811
		c-0.752-0.4-0.996-1.133-0.996-1.973c0-1.23,0.547-2.256,2.441-2.256c0.381,0,0.713,0.049,0.996,0.117h2.129v0.459l-1.045,0.293
		c0.264,0.381,0.361,0.859,0.361,1.387c0,1.23-0.547,2.256-2.441,2.256C261.133,1493.896,260.859,1493.877,260.625,1493.828z
		 M260.986,1495.449c-0.83,0.176-1.523,0.547-1.523,1.309c0,0.889,0.693,1.143,1.992,1.143c1.25,0,2.422-0.303,2.422-1.318
		c0-0.605-0.293-0.85-1.064-0.938L260.986,1495.449z M263.076,1491.64c0-0.791-0.156-1.523-1.621-1.523s-1.631,0.732-1.631,1.523
		s0.166,1.523,1.631,1.523S263.076,1492.431,263.076,1491.64z"/>
	<path fill="#ED1A2E" d="M264.619,1497.978l4.346-12.256h0.918l-4.346,12.256H264.619z"/>
	<path fill="#ED1A2E" d="M277.9,1491.152c0-0.781-0.479-1.025-1.191-1.025c-0.771,0-1.201,0.146-1.699,0.4
		c0.049,0.195,0.068,0.391,0.068,0.625v4.355h-0.879v-4.355c0-0.781-0.469-1.025-1.182-1.025c-0.732,0-1.143,0.127-1.631,0.361v5.02
		h-0.879v-5.996h0.488l0.186,0.488c0.605-0.42,1.26-0.615,1.836-0.615c0.84,0,1.426,0.225,1.748,0.684
		c0.654-0.43,1.318-0.684,1.943-0.684c1.338,0,2.07,0.596,2.07,1.807v4.316H277.9V1491.152L277.9,1491.152z"/>
	<path fill="#ED1A2E" d="M280.088,1491.269v-0.742c0.889,0.254,1.543,0.273,2.041,0.273c0.996,0,1.494-0.312,1.494-0.82
		c0-0.586-0.244-0.781-1.123-0.781h-1.465v-0.703h1.445c0.742,0,0.947-0.234,0.947-0.703c0-0.41-0.42-0.664-1.318-0.664
		c-0.625,0-1.123,0.059-1.934,0.244v-0.732c0.439-0.166,1.191-0.254,1.924-0.254c1.426,0,2.139,0.479,2.139,1.406
		c0,0.518-0.273,0.84-0.537,0.957c0.41,0.146,0.771,0.557,0.771,1.25c0,0.908-0.762,1.533-2.354,1.533
		C281.396,1491.533,280.527,1491.435,280.088,1491.269z"/>
</g>
<g>
	<path fill="#ED1A2E" d="M110.595,1505.205l0.02,7.793h-0.42v-8.994h0.264l3.564,7.334l3.555-7.334h0.264v8.994h-0.42l0.02-7.793
		l-3.232,6.562h-0.381L110.595,1505.205z"/>
	<path fill="#ED1A2E" d="M119.97,1507.519v-0.322c0.352-0.117,1.064-0.254,1.807-0.254c1.914,0,2.285,0.742,2.285,1.924v4.141
		h-0.186l-0.176-0.479c-0.527,0.361-1.484,0.537-2.109,0.537c-1.621,0-2.188-0.879-2.188-1.836c0-0.918,0.449-1.719,2.197-1.826
		l2.061-0.117v-0.439c0-1.123-0.371-1.582-1.885-1.582C120.888,1507.265,120.205,1507.441,119.97,1507.519z M121.445,1509.736
		c-1.26,0.088-1.65,0.703-1.65,1.494c0,0.703,0.293,1.504,1.816,1.504c0.791,0,1.504-0.225,2.051-0.547v-2.588L121.445,1509.736z"/>
	<path fill="#ED1A2E" d="M125.517,1512.998h-0.449l2.295-3.096l-2.148-2.891h0.439l1.904,2.637l1.904-2.637h0.439l-2.139,2.891
		l2.285,3.096h-0.449l-2.041-2.812L125.517,1512.998z"/>
	<path fill="#ED1A2E" d="M131.435,1512.344c0.195,0,0.371,0.166,0.371,0.361c0,0.205-0.176,0.352-0.371,0.352
		c-0.215,0-0.381-0.146-0.381-0.352C131.054,1512.51,131.22,1512.344,131.435,1512.344z"/>
	<path fill="#ED1A2E" d="M142.383,1507.451v-3.447h0.371v8.994h-0.156l-0.176-0.469c-0.557,0.352-1.484,0.527-2.197,0.527
		c-2.08,0-2.588-1.328-2.588-3.057s0.508-3.057,2.588-3.057C140.927,1506.943,141.826,1507.109,142.383,1507.451z M142.383,1512.236
		v-4.463c-0.566-0.332-1.279-0.508-2.158-0.508c-1.865,0-2.207,1.387-2.207,2.734c0,1.357,0.342,2.734,2.207,2.734
		C141.103,1512.734,141.816,1512.568,142.383,1512.236z"/>
	<path fill="#ED1A2E" d="M144.883,1507.519v-0.322c0.352-0.117,1.064-0.254,1.807-0.254c1.914,0,2.295,0.742,2.295,1.924v4.141
		h-0.195l-0.166-0.479c-0.527,0.361-1.494,0.537-2.119,0.537c-1.621,0-2.178-0.879-2.178-1.836c0-0.918,0.449-1.719,2.188-1.826
		l2.07-0.117v-0.439c0-1.123-0.381-1.582-1.895-1.582C145.801,1507.265,145.127,1507.441,144.883,1507.519z M146.367,1509.736
		c-1.27,0.088-1.66,0.703-1.66,1.494c0,0.703,0.293,1.504,1.816,1.504c0.791,0,1.504-0.225,2.061-0.547v-2.588L146.367,1509.736z"/>
	<path fill="#ED1A2E" d="M151.22,1504.844c0.205,0,0.381,0.176,0.381,0.361c0,0.205-0.176,0.361-0.381,0.361
		c-0.215,0-0.371-0.156-0.371-0.361C150.849,1505.019,151.006,1504.844,151.22,1504.844z M151.992,1513.066
		c-0.664,0-0.957-0.293-0.957-0.879v-5.186h0.381v5.156c0,0.459,0.117,0.615,0.576,0.615V1513.066L151.992,1513.066z"/>
	<path fill="#ED1A2E" d="M154.99,1513.066c-0.664,0-0.947-0.293-0.947-0.879v-8.184h0.381v8.154c0,0.459,0.117,0.615,0.576,0.615
		v0.293H154.99z"/>
	<path fill="#ED1A2E" d="M156.572,1507.011l2.129,5.488l2.148-5.488h0.43l-3.672,8.984h-0.42l1.338-3.057l-2.402-5.938h0.449
		V1507.011L156.572,1507.011z"/>
	<path fill="#ED1A2E" d="M164.922,1507.519v-0.322c0.342-0.117,1.025-0.254,1.729-0.254c1.836,0,2.197,0.742,2.197,1.924v4.141
		h-0.186l-0.166-0.479c-0.498,0.361-1.426,0.537-2.021,0.537c-1.553,0-2.09-0.879-2.09-1.836c0-0.918,0.43-1.719,2.1-1.826
		l1.982-0.117v-0.439c0-1.123-0.361-1.582-1.816-1.582C165.801,1507.265,165.156,1507.441,164.922,1507.519z M166.338,1509.736
		c-1.211,0.088-1.582,0.703-1.582,1.494c0,0.703,0.273,1.504,1.738,1.504c0.752,0,1.445-0.225,1.973-0.547v-2.588L166.338,1509.736z
		"/>
	<path fill="#ED1A2E" d="M170.361,1507.011l2.041,5.41l2.051-5.41h0.42l-2.393,6.055h-0.166l-2.383-6.055H170.361z"/>
	<path fill="#ED1A2E" d="M180.039,1512.441v0.322c-0.469,0.176-1.26,0.303-1.904,0.303c-1.992,0-2.48-1.279-2.48-3.066
		c0-1.777,0.488-3.057,2.48-3.057s2.207,1.299,2.207,3.057v0.176h-4.316c0.02,1.348,0.391,2.559,2.109,2.559
		C179.023,1512.734,179.599,1512.578,180.039,1512.441z M179.98,1509.834c0-1.309-0.127-2.568-1.846-2.568s-2.09,1.211-2.109,2.568
		H179.98z"/>
	<path fill="#ED1A2E" d="M184.951,1507.304c-0.166-0.02-0.361-0.039-0.566-0.039c-0.84,0-1.553,0.156-2.1,0.488v5.244h-0.381v-5.996
		h0.186l0.166,0.469c0.527-0.332,1.445-0.527,2.129-0.527c0.205,0,0.4,0.01,0.566,0.039V1507.304L184.951,1507.304z"/>
	<path fill="#ED1A2E" d="M186.269,1507.519v-0.322c0.342-0.117,1.025-0.254,1.729-0.254c1.836,0,2.197,0.742,2.197,1.924v4.141
		h-0.186l-0.166-0.479c-0.498,0.361-1.426,0.537-2.021,0.537c-1.553,0-2.09-0.879-2.09-1.836c0-0.918,0.43-1.719,2.1-1.826
		l1.982-0.117v-0.439c0-1.123-0.361-1.582-1.816-1.582C187.148,1507.265,186.504,1507.441,186.269,1507.519z M187.685,1509.736
		c-1.211,0.088-1.582,0.703-1.582,1.494c0,0.703,0.273,1.504,1.738,1.504c0.762,0,1.445-0.225,1.973-0.547v-2.588L187.685,1509.736z
		"/>
	<path fill="#ED1A2E" d="M192.802,1511.035c-0.254,0.156-0.449,0.361-0.449,0.693c0,0.41,0.361,0.498,0.654,0.527l2.529,0.352
		c1.055,0.146,1.465,0.635,1.465,1.514c0,1.387-1.523,1.943-3.174,1.943c-1.66,0-2.705-0.42-2.705-1.709
		c0-0.977,0.811-1.582,1.621-1.816c-0.508-0.088-0.732-0.361-0.732-0.811c0-0.381,0.234-0.635,0.498-0.811
		c-0.625-0.352-0.84-0.996-0.84-1.846c0-1.299,0.518-2.129,2.188-2.129c0.264,0,0.488,0.029,0.703,0.068h2.07v0.312l-1.309-0.02
		c0.527,0.361,0.713,0.986,0.713,1.768c0,1.289-0.508,2.119-2.178,2.119C193.427,1511.191,193.086,1511.142,192.802,1511.035z
		 M193.828,1515.742c1.445,0,2.793-0.439,2.793-1.621c0-0.723-0.273-1.084-1.143-1.201l-2.236-0.303
		c-0.713,0.205-1.748,0.684-1.748,1.738C191.494,1515.429,192.324,1515.742,193.828,1515.742z M192.021,1509.072
		c0,0.947,0.273,1.807,1.836,1.807c1.553,0,1.836-0.859,1.836-1.807c0-0.957-0.283-1.816-1.836-1.816
		C192.295,1507.256,192.021,1508.125,192.021,1509.072z"/>
	<path fill="#ED1A2E" d="M202.207,1512.441v0.322c-0.469,0.176-1.26,0.303-1.904,0.303c-1.992,0-2.49-1.279-2.49-3.066
		c0-1.777,0.498-3.057,2.49-3.057c1.982,0,2.207,1.299,2.207,3.057v0.176h-4.316c0.02,1.348,0.391,2.559,2.109,2.559
		C201.191,1512.734,201.758,1512.578,202.207,1512.441z M202.148,1509.834c0-1.309-0.137-2.568-1.846-2.568
		c-1.719,0-2.09,1.211-2.119,2.568H202.148z"/>
	<path fill="#ED1A2E" d="M212.373,1504.765l-2.266,8.301h-0.332l-2.148-9.062h0.41l1.904,8.34l2.256-8.34h0.352l2.256,8.34
		l1.904-8.34h0.41l-2.158,9.062h-0.322L212.373,1504.765z"/>
	<path fill="#ED1A2E" d="M224.092,1512.998v-4.492h-5.381v4.492h-0.4v-8.994h0.4v4.16h5.381v-4.16h0.4v8.994H224.092z"/>
	<path fill="#ED1A2E" d="M229.492,1513.066c-2.988,0-3.428-1.826-3.428-4.561s0.439-4.561,3.428-4.561
		c3.008,0,3.438,1.816,3.438,4.561C232.929,1511.24,232.5,1513.066,229.492,1513.066z M229.492,1504.297
		c-2.578,0-3.027,1.445-3.027,4.209c0,2.754,0.449,4.209,3.027,4.209c2.588,0,3.037-1.455,3.037-4.209
		C232.529,1505.742,232.08,1504.297,229.492,1504.297z"/>
	<path fill="#ED1A2E" d="M240.722,1506.133c-0.771,0-1.484,0.186-1.982,0.352v-0.762c0.459-0.186,1.377-0.342,1.992-0.342
		c2.256,0,2.695,1.074,2.695,2.129c0,1.348-0.547,2.1-3.975,4.746h4.121v0.752h-5.322v-0.586c3.955-2.9,4.307-3.916,4.307-4.922
		C242.558,1506.611,242.099,1506.133,240.722,1506.133z"/>
	<path fill="#ED1A2E" d="M249.17,1511.709c0-1.826-1.26-1.807-2.48-1.807h-1.748v-4.395h4.951v0.742h-4.102v2.939
		c0.391-0.039,0.85-0.059,1.191-0.059c1.514,0,3.096,0.283,3.096,2.578c0,2.588-2.031,2.91-3.457,2.91
		c-0.918,0-1.631-0.176-2.07-0.381v-0.742c0.459,0.166,1.113,0.381,2.08,0.381C247.685,1513.877,249.17,1513.594,249.17,1511.709z"
		/>
	<path fill="#ED1A2E" d="M254.092,1511.357c0,0.781,0.479,1.025,1.26,1.025c0.811,0,1.23-0.137,1.689-0.391v-4.98h0.879v5.996
		h-0.488l-0.186-0.508c-0.596,0.42-1.23,0.625-1.895,0.625c-0.527,0-0.938-0.088-1.26-0.234v3.105h-0.869v-8.994h0.869V1511.357
		L254.092,1511.357z"/>
	<path fill="#ED1A2E" d="M260.625,1511.318c-0.137,0.137-0.244,0.303-0.244,0.449c0,0.303,0.156,0.43,0.479,0.469l2.129,0.244
		c1.182,0.117,1.719,0.557,1.719,1.602c0,1.465-1.523,2.041-3.252,2.041c-1.758,0-2.812-0.498-2.812-1.816
		c0-0.811,0.596-1.357,1.289-1.582v-0.01c-0.234-0.156-0.4-0.4-0.4-0.791c0-0.342,0.215-0.615,0.479-0.82
		c-0.752-0.391-1.006-1.123-1.006-1.963c0-1.24,0.557-2.256,2.451-2.256c0.381,0,0.713,0.049,0.996,0.117h2.129v0.459l-1.045,0.283
		c0.264,0.381,0.361,0.869,0.361,1.396c0,1.23-0.557,2.246-2.441,2.246C261.133,1511.396,260.859,1511.367,260.625,1511.318z
		 M260.986,1512.939c-0.83,0.186-1.533,0.557-1.533,1.318c0,0.889,0.703,1.143,1.992,1.143c1.26,0,2.432-0.303,2.432-1.318
		c0-0.605-0.303-0.85-1.064-0.938L260.986,1512.939z M263.076,1509.14c0-0.791-0.156-1.523-1.621-1.523s-1.631,0.732-1.631,1.523
		s0.166,1.523,1.631,1.523S263.076,1509.931,263.076,1509.14z"/>
	<path fill="#ED1A2E" d="M264.619,1515.469l4.346-12.256h0.918l-4.346,12.256H264.619z"/>
	<path fill="#ED1A2E" d="M277.9,1508.652c0-0.781-0.479-1.025-1.191-1.025c-0.781,0-1.201,0.146-1.709,0.4
		c0.059,0.186,0.078,0.391,0.078,0.625v4.346h-0.879v-4.346c0-0.781-0.469-1.025-1.182-1.025c-0.732,0-1.143,0.117-1.631,0.361v5.01
		h-0.879v-5.996h0.488l0.186,0.498c0.605-0.42,1.26-0.615,1.826-0.615c0.84,0,1.436,0.225,1.758,0.684
		c0.654-0.439,1.318-0.684,1.943-0.684c1.338,0,2.07,0.596,2.07,1.797v4.316H277.9V1508.652L277.9,1508.652z"/>
	<path fill="#ED1A2E" d="M280.088,1508.769v-0.742c0.889,0.244,1.543,0.273,2.041,0.273c0.996,0,1.494-0.312,1.494-0.82
		c0-0.586-0.254-0.791-1.123-0.791h-1.465v-0.693h1.445c0.742,0,0.938-0.234,0.938-0.703c0-0.41-0.41-0.664-1.309-0.664
		c-0.625,0-1.133,0.049-1.934,0.234v-0.723c0.439-0.176,1.191-0.254,1.914-0.254c1.436,0,2.148,0.479,2.148,1.406
		c0,0.518-0.273,0.84-0.537,0.957c0.41,0.146,0.771,0.557,0.771,1.25c0,0.908-0.762,1.533-2.354,1.533
		C281.396,1509.033,280.527,1508.935,280.088,1508.769z"/>
</g>
<line fill="none" stroke="#005A91" stroke-width="1.0217" stroke-miterlimit="10" x1="0" y1="1460" x2="285.146" y2="1460"/>
<line fill="none" stroke="#005A91" stroke-width="1.0217" stroke-miterlimit="10" x1="0" y1="1700" x2="285.146" y2="1700"/>
<g>
	<path fill="#005A91" d="M135.312,1753.447c1.084,0,1.797,0.156,2.305,0.352v0.371c-0.781-0.283-1.396-0.371-2.305-0.371
		c-2.344,0-3.232,1.396-3.232,4.209c0,2.803,0.889,4.209,3.232,4.209c0.908,0,1.523-0.098,2.305-0.371v0.371
		c-0.508,0.186-1.221,0.342-2.305,0.342c-2.773,0-3.633-1.65-3.633-4.551C131.679,1755.097,132.539,1753.447,135.312,1753.447z"/>
	<path fill="#005A91" d="M141.631,1756.445c2.197,0,2.588,1.299,2.588,3.057c0,1.768-0.391,3.057-2.588,3.057
		c-2.188,0-2.578-1.289-2.578-3.057C139.052,1757.744,139.443,1756.445,141.631,1756.445z M141.631,1762.236
		c1.973,0,2.197-1.221,2.197-2.734s-0.225-2.734-2.197-2.734c-1.963,0-2.188,1.221-2.188,2.734S139.668,1762.236,141.631,1762.236z"
		/>
	<path fill="#005A91" d="M146.22,1762.06v3.438h-0.381v-8.994h0.166l0.176,0.469c0.557-0.352,1.484-0.527,2.197-0.527
		c2.08,0,2.588,1.328,2.588,3.066c0,1.719-0.518,3.047-2.588,3.047C147.676,1762.558,146.777,1762.392,146.22,1762.06z
		 M146.22,1757.275v4.463c0.566,0.332,1.279,0.498,2.158,0.498c1.865,0,2.197-1.377,2.197-2.734c0-1.348-0.332-2.734-2.197-2.734
		C147.5,1756.767,146.787,1756.933,146.22,1757.275z"/>
	<path fill="#005A91" d="M157.06,1761.943v0.322c-0.488,0.176-1.318,0.293-1.992,0.293c-2.08,0-2.598-1.27-2.598-3.057
		s0.518-3.057,2.598-3.057s2.305,1.289,2.305,3.057v0.166h-4.512c0.02,1.357,0.41,2.568,2.207,2.568
		C155.996,1762.236,156.592,1762.08,157.06,1761.943z M156.992,1759.336c0-1.309-0.137-2.568-1.924-2.568
		c-1.797,0-2.188,1.211-2.207,2.568H156.992z"/>
	<path fill="#005A91" d="M163.242,1758.086c0-1.055-0.615-1.318-1.65-1.318c-0.879,0-1.631,0.156-2.188,0.498v5.234h-0.41v-5.996
		h0.195l0.176,0.469c0.547-0.332,1.514-0.527,2.227-0.527c1.465,0,2.051,0.479,2.051,1.68v4.375h-0.4V1758.086L163.242,1758.086z"/>
	<path fill="#005A91" d="M165.342,1753.506h0.371v3.457c0.547-0.322,1.494-0.518,2.197-0.518c1.465,0,2.051,0.479,2.051,1.68v4.375
		h-0.4v-4.414c0-1.055-0.615-1.318-1.65-1.318c-0.879,0-1.631,0.156-2.197,0.498v5.234h-0.371V1753.506L165.342,1753.506z"/>
	<path fill="#005A91" d="M172.031,1757.021v-0.322c0.342-0.117,1.055-0.254,1.797-0.254c1.924,0,2.295,0.742,2.295,1.914v4.141
		h-0.186l-0.176-0.469c-0.527,0.361-1.494,0.527-2.119,0.527c-1.621,0-2.178-0.869-2.178-1.836c0-0.908,0.449-1.709,2.188-1.816
		l2.07-0.117v-0.43c0-1.133-0.381-1.592-1.895-1.592C172.939,1756.767,172.265,1756.933,172.031,1757.021z M173.506,1759.238
		c-1.27,0.088-1.65,0.703-1.65,1.484c0,0.713,0.283,1.514,1.816,1.514c0.781,0,1.504-0.225,2.051-0.547v-2.588L173.506,1759.238z"/>
	<path fill="#005A91" d="M178.838,1760.537c-0.264,0.156-0.459,0.361-0.459,0.693c0,0.41,0.371,0.488,0.674,0.527l2.646,0.352
		c1.104,0.137,1.523,0.635,1.523,1.504c0,1.396-1.592,1.953-3.301,1.953c-1.748,0-2.832-0.43-2.832-1.709
		c0-0.986,0.85-1.582,1.689-1.826c-0.527-0.078-0.762-0.352-0.762-0.801c0-0.381,0.244-0.635,0.518-0.811
		c-0.645-0.352-0.869-0.996-0.869-1.846c0-1.299,0.537-2.129,2.275-2.129c0.273,0,0.518,0.02,0.742,0.059h2.148v0.322l-1.357-0.02
		c0.547,0.361,0.752,0.986,0.752,1.768c0,1.289-0.547,2.119-2.285,2.119C179.492,1760.693,179.14,1760.644,178.838,1760.537z
		 M179.922,1765.234c1.504,0,2.91-0.43,2.91-1.621c0-0.713-0.283-1.074-1.201-1.191l-2.324-0.303
		c-0.752,0.205-1.826,0.684-1.826,1.738C177.48,1764.922,178.34,1765.234,179.922,1765.234z M178.027,1758.574
		c0,0.938,0.283,1.807,1.914,1.807s1.914-0.859,1.914-1.807c0-0.957-0.283-1.816-1.914-1.816S178.027,1757.617,178.027,1758.574z"/>
	<path fill="#005A91" d="M188.662,1761.943v0.322c-0.488,0.176-1.318,0.293-1.992,0.293c-2.08,0-2.588-1.27-2.588-3.057
		s0.508-3.057,2.588-3.057s2.305,1.289,2.305,3.057v0.166h-4.512c0.029,1.357,0.42,2.568,2.207,2.568
		C187.597,1762.236,188.203,1762.08,188.662,1761.943z M188.603,1759.336c0-1.309-0.146-2.568-1.934-2.568s-2.178,1.211-2.207,2.568
		H188.603z"/>
	<path fill="#005A91" d="M194.853,1758.086c0-1.055-0.615-1.318-1.66-1.318c-0.869,0-1.621,0.156-2.188,0.498v5.234h-0.4v-5.996
		h0.186l0.176,0.469c0.557-0.332,1.514-0.527,2.227-0.527c1.475,0,2.061,0.479,2.061,1.68v4.375h-0.4V1758.086L194.853,1758.086z"/>
	<path fill="#005A91" d="M198.408,1752.91h0.43c-0.645,0.967-1.494,3.086-1.494,5.996c0,2.9,0.85,5.02,1.494,5.996h-0.43
		c-0.625-1.006-1.465-3.096-1.465-5.996C196.943,1755.996,197.783,1753.916,198.408,1752.91z"/>
	<path fill="#005A91" d="M202.676,1755.273c-0.762,0-1.475,0.127-2.051,0.312v-0.342c0.498-0.176,1.25-0.312,2.041-0.312
		c2.217,0,2.744,0.938,2.744,1.963c0,1.27-0.537,2.012-4.844,5.293h4.932v0.312h-5.488v-0.215c4.443-3.467,5.02-4.15,5.02-5.391
		C205.019,1755.771,204.404,1755.273,202.676,1755.273z"/>
	<path fill="#005A91" d="M209.804,1762.558c-2.314,0-2.988-1.25-2.988-3.809c0-2.578,0.674-3.809,2.988-3.809
		c2.334,0,3.018,1.23,3.018,3.809C212.822,1761.308,212.138,1762.558,209.804,1762.558z M209.804,1755.273
		c-1.973,0-2.598,1.074-2.598,3.477s0.625,3.486,2.598,3.486c1.982,0,2.637-1.084,2.637-3.486S211.787,1755.273,209.804,1755.273z"
		/>
	<path fill="#005A91" d="M216.142,1754.941v7.559h-0.371v-7.197l-1.826,0.4v-0.186l2.051-0.576H216.142L216.142,1754.941z"/>
	<path fill="#005A91" d="M218.525,1755.556v-0.332c0.518-0.156,1.318-0.283,1.865-0.283c2.168,0,2.764,0.957,2.764,2.285
		c0,0.908-0.41,1.943-1.748,2.09c1.533,0.029,2.08,1.133,2.08,2.227c0,1.377-0.596,2.52-3.008,2.52c-0.82,0-1.514-0.137-1.953-0.312
		v-0.322c0.469,0.146,1.104,0.312,1.953,0.312c2.197,0,2.627-1.035,2.627-2.197c0-1.484-0.811-2.031-2.539-2.031h-1.133v-0.342
		h1.133c1.797,0,2.197-0.996,2.197-1.943c0-1.104-0.352-1.953-2.373-1.953C219.717,1755.273,219.043,1755.41,218.525,1755.556z"/>
	<path fill="#005A91" d="M225.215,1764.902h-0.43c0.645-0.977,1.494-3.096,1.494-5.996s-0.85-5.029-1.494-5.996h0.43
		c0.625,1.006,1.465,3.096,1.465,5.996S225.84,1763.896,225.215,1764.902z"/>
	<path fill="#005A91" d="M233.398,1762.5h-0.449l0.469-0.762c-0.762-0.801-0.908-2.1-0.908-3.73c0-2.734,0.439-4.561,3.428-4.561
		c1.016,0,1.729,0.215,2.246,0.586l0.322-0.527h0.449l-0.488,0.791c0.752,0.791,0.908,2.09,0.908,3.711
		c0,2.734-0.43,4.551-3.438,4.551c-0.996,0-1.719-0.195-2.227-0.566L233.398,1762.5z M232.91,1758.008
		c0,1.543,0.137,2.686,0.723,3.379l4.346-7.031c-0.459-0.371-1.113-0.557-2.041-0.557
		C233.359,1753.799,232.91,1755.244,232.91,1758.008z M238.252,1754.629l-4.346,7.031c0.469,0.371,1.104,0.557,2.031,0.557
		c2.578,0,3.027-1.455,3.027-4.209C238.974,1756.465,238.828,1755.342,238.252,1754.629z"/>
	<path fill="#005A91" d="M244.892,1754.883v7.617h-0.869v-6.748l-1.699,0.059v-0.322l2.197-0.605H244.892L244.892,1754.883z"/>
	<path fill="#005A91" d="M249.033,1754.883v7.617h-0.879v-6.748l-1.689,0.059v-0.322l2.188-0.605H249.033L249.033,1754.883z"/>
	<path fill="#005A91" d="M254.219,1760.859c0,0.781,0.469,1.016,1.25,1.016c0.811,0,1.23-0.127,1.689-0.381v-4.99h0.879v5.996
		h-0.488l-0.186-0.498c-0.596,0.42-1.23,0.615-1.895,0.615c-0.527,0-0.938-0.078-1.25-0.225v3.105h-0.879v-8.994h0.879V1760.859
		L254.219,1760.859z"/>
	<path fill="#005A91" d="M260.742,1760.82c-0.137,0.137-0.244,0.303-0.244,0.449c0,0.293,0.156,0.43,0.479,0.469l2.129,0.234
		c1.182,0.117,1.719,0.566,1.719,1.611c0,1.465-1.523,2.041-3.252,2.041c-1.758,0-2.812-0.498-2.812-1.816
		c0-0.82,0.596-1.357,1.289-1.582v-0.01c-0.234-0.156-0.4-0.4-0.4-0.791c0-0.342,0.215-0.615,0.479-0.82
		c-0.752-0.391-1.006-1.123-1.006-1.963c0-1.24,0.557-2.256,2.451-2.256c0.381,0,0.713,0.049,0.996,0.117h2.129v0.459l-1.045,0.283
		c0.264,0.381,0.361,0.859,0.361,1.396c0,1.23-0.557,2.246-2.441,2.246C261.26,1760.898,260.976,1760.869,260.742,1760.82z
		 M261.103,1762.441c-0.82,0.186-1.523,0.547-1.523,1.318c0,0.889,0.703,1.143,1.992,1.143c1.25,0,2.422-0.303,2.422-1.318
		c0-0.615-0.293-0.85-1.064-0.938L261.103,1762.441z M263.193,1758.642c0-0.791-0.156-1.523-1.621-1.523s-1.631,0.732-1.631,1.523
		s0.166,1.523,1.631,1.523S263.193,1759.433,263.193,1758.642z"/>
	<path fill="#005A91" d="M264.736,1764.97l4.346-12.256H270l-4.346,12.256H264.736z"/>
	<path fill="#005A91" d="M278.017,1758.144c0-0.781-0.479-1.016-1.191-1.016c-0.781,0-1.201,0.146-1.699,0.391
		c0.049,0.195,0.068,0.4,0.068,0.625v4.355h-0.879v-4.355c0-0.781-0.469-1.016-1.182-1.016c-0.732,0-1.143,0.117-1.631,0.361v5.01
		h-0.879v-5.996h0.488l0.186,0.488c0.605-0.41,1.26-0.605,1.826-0.605c0.84,0,1.436,0.225,1.758,0.684
		c0.654-0.43,1.318-0.684,1.943-0.684c1.338,0,2.07,0.596,2.07,1.797v4.316h-0.879V1758.144L278.017,1758.144z"/>
	<path fill="#005A91" d="M280.205,1758.271v-0.752c0.889,0.254,1.543,0.283,2.041,0.283c0.996,0,1.494-0.312,1.494-0.82
		c0-0.586-0.254-0.791-1.123-0.791h-1.465v-0.693h1.445c0.742,0,0.947-0.244,0.947-0.713c0-0.4-0.42-0.654-1.318-0.654
		c-0.625,0-1.133,0.049-1.934,0.244v-0.732c0.439-0.166,1.191-0.254,1.924-0.254c1.426,0,2.139,0.479,2.139,1.406
		c0,0.518-0.273,0.84-0.537,0.957c0.41,0.146,0.771,0.557,0.771,1.25c0,0.908-0.762,1.533-2.354,1.533
		C281.513,1758.535,280.644,1758.437,280.205,1758.271z"/>
</g>
<line fill="none" stroke="#005A91" stroke-width="1.0217" stroke-miterlimit="10" x1="0" y1="1340" x2="285.146" y2="1340"/>
<g>
	<path fill="#005A91" d="M148.711,1336.006v-8.994h0.4v8.994H148.711z"/>
	<path fill="#005A91" d="M154.863,1334.394c0-0.879-0.293-1.172-1.758-1.338c-1.65-0.195-2.031-0.566-2.031-1.504
		c0-0.918,0.557-1.611,2.275-1.611c0.547,0,1.24,0.088,1.738,0.244v0.322c-0.469-0.117-0.938-0.234-1.738-0.234
		c-1.445,0-1.895,0.469-1.895,1.279c0,0.859,0.41,1.035,1.738,1.191c1.631,0.186,2.041,0.576,2.041,1.641
		c0,0.859-0.537,1.68-2.451,1.68c-0.557,0-1.24-0.088-1.738-0.244v-0.322c0.459,0.127,0.938,0.244,1.738,0.244
		C154.414,1335.742,154.863,1335.127,154.863,1334.394z"/>
	<path fill="#005A91" d="M159.687,1336.064h-0.156c-1.396,0-2.1-0.527-2.1-1.611v-4.121h-1.191v-0.205l1.191-0.137v-1.777
		l0.371-0.049v1.846h2.148v0.322h-2.148v4.219c0,0.938,0.791,1.23,1.729,1.23h0.156V1336.064L159.687,1336.064z"/>
	<path fill="#005A91" d="M161.816,1330.527v-0.332c0.352-0.117,1.064-0.244,1.797-0.244c1.924,0,2.295,0.742,2.295,1.914v4.141
		h-0.186l-0.176-0.469c-0.527,0.361-1.494,0.527-2.119,0.527c-1.611,0-2.178-0.879-2.178-1.836c0-0.908,0.449-1.719,2.188-1.826
		l2.07-0.117v-0.43c0-1.133-0.371-1.582-1.895-1.582C162.724,1330.273,162.051,1330.439,161.816,1330.527z M163.291,1332.744
		c-1.27,0.078-1.65,0.693-1.65,1.484c0,0.713,0.283,1.514,1.816,1.514c0.781,0,1.504-0.234,2.051-0.557v-2.588L163.291,1332.744z"/>
	<path fill="#005A91" d="M171.845,1331.592c0-1.055-0.615-1.318-1.65-1.318c-0.879,0-1.631,0.156-2.197,0.488v5.244h-0.4v-5.996
		h0.195l0.166,0.469c0.557-0.342,1.523-0.527,2.236-0.527c1.465,0,2.051,0.479,2.051,1.68v4.375h-0.4V1331.592L171.845,1331.592z"/>
	<path fill="#005A91" d="M179.062,1333.008c0,1.729-0.518,3.057-2.598,3.057c-0.713,0-1.641-0.186-2.188-0.527l-0.176,0.469h-0.166
		v-8.994h0.381v3.438c0.547-0.332,1.455-0.498,2.148-0.498C178.545,1329.941,179.062,1331.279,179.062,1333.008z M178.672,1333.008
		c0-1.357-0.332-2.734-2.207-2.734c-0.879,0-1.592,0.166-2.148,0.508v4.453c0.557,0.342,1.279,0.508,2.148,0.508
		C178.34,1335.742,178.672,1334.355,178.672,1333.008z"/>
	<path fill="#005A91" d="M181.025,1334.424c0,1.055,0.615,1.318,1.66,1.318c0.869,0,1.621-0.156,2.188-0.488v-5.244h0.4v5.996
		h-0.186l-0.176-0.469c-0.547,0.332-1.514,0.527-2.227,0.527c-1.475,0-2.061-0.479-2.061-1.68V1330h0.4V1334.424L181.025,1334.424z"
		/>
	<path fill="#005A91" d="M188.34,1336.064c-0.664,0-0.947-0.283-0.947-0.879v-8.174h0.381v8.145c0,0.459,0.117,0.615,0.576,0.615
		v0.293H188.34z"/>
	<path fill="#005A91" d="M193.633,1326.406h0.42c-0.635,0.977-1.484,3.096-1.484,5.996c0,2.91,0.85,5.029,1.484,5.996h-0.42
		c-0.625-1.006-1.465-3.086-1.465-5.996C192.168,1329.502,193.008,1327.412,193.633,1326.406z"/>
	<path fill="#005A91" d="M197.9,1328.769c-0.762,0-1.475,0.137-2.051,0.312v-0.332c0.498-0.186,1.25-0.312,2.041-0.312
		c2.217,0,2.744,0.928,2.744,1.963c0,1.26-0.537,2.002-4.844,5.293h4.932v0.303h-5.488v-0.215c4.434-3.457,5.01-4.141,5.01-5.391
		C200.244,1329.277,199.629,1328.769,197.9,1328.769z"/>
	<path fill="#005A91" d="M205.029,1336.064c-2.314,0-2.988-1.25-2.988-3.818c0-2.578,0.674-3.799,2.988-3.799
		c2.334,0,3.018,1.221,3.018,3.799C208.047,1334.814,207.363,1336.064,205.029,1336.064z M205.029,1328.769
		c-1.982,0-2.607,1.084-2.607,3.477c0,2.402,0.625,3.496,2.607,3.496s2.637-1.094,2.637-3.496
		C207.666,1329.853,207.011,1328.769,205.029,1328.769z"/>
	<path fill="#005A91" d="M211.367,1328.447v7.559h-0.371v-7.197l-1.836,0.391v-0.176l2.061-0.576H211.367L211.367,1328.447z"/>
	<path fill="#005A91" d="M216.172,1328.769c-0.771,0-1.484,0.137-2.061,0.312v-0.332c0.508-0.186,1.25-0.312,2.041-0.312
		c2.217,0,2.744,0.928,2.744,1.963c0,1.26-0.537,2.002-4.844,5.293h4.932v0.303h-5.488v-0.215c4.443-3.457,5.02-4.141,5.02-5.391
		C218.506,1329.277,217.9,1328.769,216.172,1328.769z"/>
	<path fill="#005A91" d="M220.713,1338.398h-0.43c0.645-0.967,1.494-3.086,1.494-5.996c0-2.9-0.85-5.02-1.494-5.996h0.43
		c0.625,1.016,1.465,3.096,1.465,5.996C222.177,1335.312,221.338,1337.392,220.713,1338.398z"/>
	<path fill="#005A91" d="M228.896,1336.006h-0.449l0.469-0.771c-0.762-0.791-0.908-2.1-0.908-3.73c0-2.734,0.439-4.551,3.428-4.551
		c1.016,0,1.729,0.215,2.246,0.586l0.322-0.527h0.449l-0.488,0.791c0.752,0.791,0.908,2.08,0.908,3.701
		c0,2.734-0.43,4.561-3.438,4.561c-0.996,0-1.719-0.205-2.227-0.576L228.896,1336.006z M228.408,1331.504
		c0,1.553,0.137,2.695,0.723,3.389l4.346-7.031c-0.459-0.371-1.113-0.557-2.041-0.557
		C228.857,1327.295,228.408,1328.75,228.408,1331.504z M233.75,1328.135l-4.346,7.031c0.469,0.371,1.104,0.547,2.031,0.547
		c2.578,0,3.037-1.445,3.037-4.209C234.472,1329.97,234.326,1328.847,233.75,1328.135z"/>
	<path fill="#005A91" d="M238.31,1329.492v-0.771c0.469-0.176,1.387-0.332,1.982-0.332c2.197,0,2.92,1.113,2.92,2.422
		c0,0.781-0.469,1.631-1.279,1.963c1.074,0.283,1.592,1.24,1.592,2.197c0,1.406-0.801,2.646-3.145,2.646
		c-0.918,0-1.631-0.176-2.07-0.381v-0.742c0.469,0.166,1.104,0.381,2.07,0.381c1.816,0,2.217-0.957,2.217-1.904
		c0-1.211-0.605-1.738-2.148-1.738h-1.387v-0.791h1.387c1.416,0,1.836-0.869,1.836-1.631c0-0.889-0.342-1.68-1.992-1.68
		C239.531,1329.131,238.818,1329.316,238.31,1329.492z"/>
	<path fill="#005A91" d="M244.638,1329.492v-0.771c0.469-0.176,1.377-0.332,1.982-0.332c2.188,0,2.92,1.113,2.92,2.422
		c0,0.781-0.469,1.631-1.279,1.963c1.074,0.283,1.592,1.24,1.592,2.197c0,1.406-0.811,2.646-3.154,2.646
		c-0.908,0-1.621-0.176-2.061-0.381v-0.742c0.459,0.166,1.104,0.381,2.061,0.381c1.826,0,2.227-0.957,2.227-1.904
		c0-1.211-0.605-1.738-2.148-1.738h-1.387v-0.791h1.387c1.416,0,1.836-0.869,1.836-1.631c0-0.889-0.342-1.68-1.992-1.68
		C245.859,1329.131,245.146,1329.316,244.638,1329.492z"/>
	<path fill="#005A91" d="M254.101,1334.355c0,0.781,0.469,1.025,1.25,1.025c0.811,0,1.23-0.127,1.689-0.381v-4.99h0.879v5.996
		h-0.488l-0.186-0.508c-0.596,0.42-1.23,0.625-1.895,0.625c-0.527,0-0.938-0.088-1.25-0.225v3.105h-0.879v-8.994h0.879V1334.355
		L254.101,1334.355z"/>
	<path fill="#005A91" d="M260.625,1334.326c-0.137,0.127-0.234,0.303-0.234,0.439c0,0.303,0.146,0.43,0.469,0.469l2.129,0.244
		c1.182,0.117,1.719,0.557,1.719,1.602c0,1.465-1.523,2.041-3.252,2.041c-1.758,0-2.812-0.488-2.812-1.807
		c0-0.82,0.596-1.357,1.289-1.592v-0.01c-0.234-0.156-0.4-0.391-0.4-0.791c0-0.332,0.215-0.605,0.479-0.811
		c-0.752-0.4-0.996-1.133-0.996-1.973c0-1.23,0.547-2.256,2.441-2.256c0.381,0,0.713,0.049,0.996,0.117h2.129v0.459l-1.045,0.293
		c0.264,0.381,0.361,0.859,0.361,1.387c0,1.24-0.547,2.256-2.441,2.256C261.133,1334.394,260.859,1334.375,260.625,1334.326z
		 M260.986,1335.947c-0.83,0.176-1.523,0.547-1.523,1.318c0,0.879,0.693,1.133,1.992,1.133c1.25,0,2.422-0.293,2.422-1.318
		c0-0.605-0.293-0.85-1.064-0.928L260.986,1335.947z M263.076,1332.138c0-0.791-0.156-1.514-1.621-1.514s-1.631,0.723-1.631,1.514
		s0.166,1.523,1.631,1.523S263.076,1332.929,263.076,1332.138z"/>
	<path fill="#005A91" d="M264.619,1338.476l4.346-12.256h0.918l-4.346,12.256H264.619z"/>
	<path fill="#005A91" d="M277.9,1331.65c0-0.781-0.479-1.025-1.191-1.025c-0.771,0-1.201,0.146-1.699,0.4
		c0.049,0.195,0.068,0.4,0.068,0.625v4.355h-0.879v-4.355c0-0.781-0.469-1.025-1.182-1.025c-0.732,0-1.143,0.127-1.631,0.361v5.02
		h-0.879v-5.996h0.488l0.186,0.488c0.605-0.42,1.26-0.615,1.836-0.615c0.84,0,1.426,0.234,1.748,0.684
		c0.654-0.43,1.318-0.684,1.943-0.684c1.338,0,2.07,0.605,2.07,1.807v4.316H277.9V1331.65L277.9,1331.65z"/>
	<path fill="#005A91" d="M280.088,1331.767v-0.742c0.889,0.254,1.543,0.283,2.041,0.283c0.996,0,1.494-0.322,1.494-0.82
		c0-0.586-0.244-0.791-1.123-0.791h-1.465v-0.693h1.445c0.742,0,0.947-0.244,0.947-0.713c0-0.41-0.42-0.654-1.318-0.654
		c-0.625,0-1.123,0.049-1.934,0.234v-0.732c0.439-0.166,1.191-0.244,1.924-0.244c1.426,0,2.139,0.469,2.139,1.396
		c0,0.518-0.273,0.84-0.537,0.967c0.41,0.137,0.771,0.547,0.771,1.24c0,0.908-0.762,1.533-2.354,1.533
		C281.396,1332.031,280.527,1331.933,280.088,1331.767z"/>
</g>
<g>
	<path fill="#005A91" d="M155.976,1687.705l0.02,7.803h-0.42v-8.994h0.264l3.555,7.324l3.564-7.324h0.264v8.994h-0.42l0.02-7.803
		l-3.232,6.562h-0.381L155.976,1687.705z"/>
	<path fill="#005A91" d="M165.312,1693.926c0,1.055,0.615,1.309,1.65,1.309c0.879,0,1.631-0.146,2.197-0.488v-5.234h0.4v5.996
		h-0.195l-0.166-0.469c-0.557,0.332-1.523,0.527-2.236,0.527c-1.465,0-2.051-0.488-2.051-1.68v-4.385h0.4V1693.926L165.312,1693.926
		z"/>
	<path fill="#005A91" d="M175.556,1691.094c0-1.055-0.615-1.318-1.65-1.318c-0.879,0-1.631,0.146-2.188,0.488v5.244h-0.4v-5.996
		h0.186l0.176,0.469c0.547-0.342,1.514-0.527,2.227-0.527c1.465,0,2.051,0.479,2.051,1.68v4.375h-0.4V1691.094L175.556,1691.094z"/>
	<path fill="#005A91" d="M178.203,1687.344c0.195,0,0.371,0.176,0.371,0.361c0,0.205-0.176,0.361-0.371,0.361
		c-0.215,0-0.381-0.156-0.381-0.361C177.822,1687.519,177.988,1687.344,178.203,1687.344z M178.965,1695.566
		c-0.664,0-0.947-0.293-0.947-0.879v-5.176h0.371v5.146c0,0.459,0.127,0.615,0.576,0.615V1695.566L178.965,1695.566z"/>
	<path fill="#005A91" d="M183.125,1689.443c0.547,0,1.24,0.088,1.738,0.244v0.322c-0.459-0.117-0.938-0.244-1.738-0.244
		c-1.865,0-2.207,1.328-2.207,2.734c0,1.426,0.342,2.734,2.207,2.734c0.801,0,1.279-0.117,1.738-0.234v0.322
		c-0.498,0.156-1.191,0.244-1.738,0.244c-2.08,0-2.598-1.279-2.598-3.066C180.527,1690.722,181.045,1689.443,183.125,1689.443z"/>
	<path fill="#005A91" d="M186.367,1686.504h0.381v3.457c0.547-0.322,1.484-0.518,2.188-0.518c1.465,0,2.061,0.479,2.061,1.68v4.385
		h-0.4v-4.414c0-1.064-0.615-1.318-1.66-1.318c-0.869,0-1.621,0.146-2.188,0.488v5.244h-0.381V1686.504z"/>
	<path fill="#005A91" d="M196.279,1685.908h0.42c-0.635,0.977-1.484,3.096-1.484,5.996s0.85,5.029,1.484,5.996h-0.42
		c-0.625-1.006-1.465-3.096-1.465-5.996S195.654,1686.914,196.279,1685.908z"/>
	<path fill="#005A91" d="M200.547,1688.271c-0.762,0-1.475,0.127-2.051,0.312v-0.342c0.498-0.176,1.25-0.312,2.041-0.312
		c2.217,0,2.744,0.938,2.744,1.973c0,1.26-0.537,2.002-4.844,5.293h4.932v0.303h-5.488v-0.215c4.434-3.467,5.01-4.15,5.01-5.391
		C202.89,1688.779,202.275,1688.271,200.547,1688.271z"/>
	<path fill="#005A91" d="M207.676,1695.566c-2.314,0-2.988-1.25-2.988-3.818c0-2.578,0.674-3.799,2.988-3.799
		c2.334,0,3.018,1.221,3.018,3.799C210.693,1694.316,210.01,1695.566,207.676,1695.566z M207.676,1688.271
		c-1.982,0-2.607,1.084-2.607,3.477c0,2.402,0.625,3.486,2.607,3.486s2.637-1.084,2.637-3.486
		C210.312,1689.355,209.658,1688.271,207.676,1688.271z"/>
	<path fill="#005A91" d="M214.013,1687.949v7.559h-0.371v-7.197l-1.826,0.391v-0.186l2.051-0.566H214.013L214.013,1687.949z"/>
	<path fill="#005A91" d="M216.396,1688.554v-0.332c0.518-0.156,1.318-0.273,1.865-0.273c2.168,0,2.754,0.947,2.754,2.275
		c0,0.908-0.4,1.943-1.738,2.09c1.533,0.029,2.08,1.143,2.08,2.227c0,1.377-0.605,2.52-3.008,2.52c-0.82,0-1.514-0.127-1.953-0.312
		v-0.322c0.469,0.156,1.104,0.312,1.953,0.312c2.197,0,2.617-1.035,2.617-2.197c0-1.484-0.801-2.041-2.529-2.041h-1.143v-0.332
		h1.143c1.797,0,2.197-0.996,2.197-1.943c0-1.104-0.352-1.953-2.373-1.953C217.588,1688.271,216.914,1688.418,216.396,1688.554z"/>
	<path fill="#005A91" d="M223.086,1697.9h-0.43c0.645-0.967,1.494-3.096,1.494-5.996s-0.85-5.02-1.494-5.996h0.43
		c0.625,1.006,1.465,3.096,1.465,5.996S223.711,1696.894,223.086,1697.9z"/>
	<path fill="#005A91" d="M231.269,1695.508h-0.449l0.469-0.771c-0.762-0.791-0.908-2.1-0.908-3.73c0-2.734,0.43-4.561,3.428-4.561
		c1.016,0,1.729,0.215,2.246,0.586l0.322-0.527h0.449l-0.488,0.801c0.752,0.791,0.908,2.08,0.908,3.701
		c0,2.734-0.43,4.561-3.438,4.561c-1.006,0-1.719-0.205-2.227-0.576L231.269,1695.508z M230.781,1691.006
		c0,1.553,0.137,2.686,0.723,3.389l4.346-7.031c-0.459-0.371-1.113-0.566-2.041-0.566
		C231.23,1686.797,230.781,1688.242,230.781,1691.006z M236.123,1687.636l-4.346,7.031c0.469,0.371,1.104,0.547,2.031,0.547
		c2.578,0,3.027-1.445,3.027-4.209C236.836,1689.472,236.699,1688.34,236.123,1687.636z"/>
	<path fill="#005A91" d="M242.763,1687.89v7.607h-0.879v-6.748l-1.689,0.059v-0.322l2.197-0.596H242.763L242.763,1687.89z"/>
	<path fill="#005A91" d="M249.287,1694.209c0-1.826-1.26-1.807-2.471-1.807h-1.758v-4.395h4.951v0.742h-4.102v2.939
		c0.391-0.039,0.85-0.059,1.191-0.059c1.514,0,3.096,0.283,3.096,2.578c0,2.588-2.031,2.91-3.457,2.91
		c-0.918,0-1.631-0.176-2.07-0.381v-0.742c0.459,0.166,1.113,0.381,2.08,0.381C247.802,1696.377,249.287,1696.094,249.287,1694.209z
		"/>
	<path fill="#005A91" d="M254.219,1693.857c0,0.781,0.469,1.025,1.25,1.025c0.811,0,1.23-0.137,1.689-0.391v-4.98h0.879v5.996
		h-0.488l-0.186-0.508c-0.596,0.42-1.23,0.625-1.895,0.625c-0.527,0-0.938-0.088-1.25-0.234v3.105h-0.879v-8.984h0.879V1693.857
		L254.219,1693.857z"/>
	<path fill="#005A91" d="M260.742,1693.828c-0.137,0.127-0.244,0.293-0.244,0.439c0,0.303,0.156,0.43,0.479,0.469l2.129,0.244
		c1.182,0.117,1.719,0.557,1.719,1.602c0,1.465-1.523,2.041-3.252,2.041c-1.758,0-2.812-0.498-2.812-1.816
		c0-0.811,0.596-1.348,1.289-1.582v-0.01c-0.234-0.156-0.4-0.4-0.4-0.791c0-0.342,0.215-0.615,0.479-0.811
		c-0.752-0.4-1.006-1.133-1.006-1.973c0-1.23,0.557-2.256,2.451-2.256c0.381,0,0.713,0.049,0.996,0.117h2.129v0.459l-1.045,0.283
		c0.264,0.391,0.361,0.869,0.361,1.396c0,1.23-0.557,2.256-2.441,2.256C261.25,1693.896,260.976,1693.867,260.742,1693.828z
		 M261.103,1695.449c-0.82,0.176-1.523,0.547-1.523,1.309c0,0.889,0.703,1.143,1.992,1.143c1.25,0,2.422-0.303,2.422-1.318
		c0-0.605-0.293-0.85-1.064-0.938L261.103,1695.449z M263.193,1691.64c0-0.791-0.156-1.523-1.621-1.523s-1.631,0.732-1.631,1.523
		s0.166,1.523,1.631,1.523S263.193,1692.431,263.193,1691.64z"/>
	<path fill="#005A91" d="M264.736,1697.969l4.346-12.246H270l-4.346,12.246H264.736z"/>
	<path fill="#005A91" d="M278.017,1691.152c0-0.781-0.479-1.025-1.191-1.025c-0.771,0-1.201,0.146-1.699,0.4
		c0.049,0.195,0.068,0.391,0.068,0.625v4.355h-0.879v-4.355c0-0.781-0.469-1.025-1.182-1.025c-0.732,0-1.143,0.127-1.631,0.361v5.02
		h-0.879v-5.996h0.488l0.186,0.488c0.605-0.42,1.26-0.615,1.826-0.615c0.84,0,1.436,0.225,1.758,0.684
		c0.654-0.43,1.318-0.684,1.943-0.684c1.338,0,2.07,0.596,2.07,1.807v4.316h-0.879V1691.152L278.017,1691.152L278.017,1691.152z"/>
	<path fill="#005A91" d="M280.205,1691.269v-0.742c0.889,0.254,1.543,0.273,2.041,0.273c0.996,0,1.494-0.312,1.494-0.82
		c0-0.586-0.254-0.781-1.123-0.781h-1.465v-0.703h1.445c0.742,0,0.947-0.234,0.947-0.703c0-0.41-0.42-0.664-1.318-0.664
		c-0.625,0-1.133,0.059-1.934,0.244v-0.732c0.439-0.166,1.191-0.254,1.924-0.254c1.426,0,2.139,0.479,2.139,1.406
		c0,0.518-0.273,0.84-0.537,0.957c0.41,0.146,0.771,0.557,0.771,1.25c0,0.908-0.762,1.533-2.354,1.533
		C281.513,1691.533,280.644,1691.435,280.205,1691.269z"/>
</g>
<polyline fill="none" stroke="#005A91" stroke-width="1.0217" stroke-miterlimit="10" points="285.146,1768.496 86.25,1768.496 
	54.121,1780 0,1780 "/>
<g>
	<path fill="#005A91" d="M155.068,1455.156h4.541v0.352h-4.932v-9.004h0.391V1455.156L155.068,1455.156z"/>
	<path fill="#005A91" d="M163.261,1449.443c2.188,0,2.578,1.299,2.578,3.057c0,1.768-0.391,3.066-2.578,3.066
		c-2.197,0-2.588-1.299-2.588-3.066C160.674,1450.742,161.064,1449.443,163.261,1449.443z M163.261,1455.234
		c1.963,0,2.188-1.221,2.188-2.725c0-1.514-0.225-2.734-2.188-2.734c-1.973,0-2.197,1.221-2.197,2.734
		C161.064,1454.013,161.289,1455.234,163.261,1455.234z"/>
	<path fill="#005A91" d="M171.709,1451.094c0-1.064-0.605-1.318-1.65-1.318c-0.879,0-1.631,0.146-2.188,0.488v5.244h-0.4v-5.996
		h0.186l0.176,0.469c0.547-0.342,1.514-0.527,2.227-0.527c1.465,0,2.061,0.469,2.061,1.67v4.385h-0.41V1451.094L171.709,1451.094z"
		/>
	<path fill="#005A91" d="M178.427,1449.951v-3.447h0.371v8.994h-0.156l-0.176-0.469c-0.547,0.352-1.475,0.527-2.188,0.527
		c-2.09,0-2.598-1.328-2.598-3.057s0.518-3.057,2.598-3.057C176.972,1449.443,177.881,1449.609,178.427,1449.951z M178.427,1454.736
		v-4.463c-0.566-0.332-1.279-0.508-2.158-0.508c-1.865,0-2.197,1.387-2.197,2.734c0,1.357,0.332,2.734,2.197,2.734
		C177.148,1455.234,177.861,1455.068,178.427,1454.736z"/>
	<path fill="#005A91" d="M183.008,1449.443c2.197,0,2.588,1.299,2.588,3.057c0,1.768-0.391,3.066-2.588,3.066
		c-2.188,0-2.578-1.299-2.578-3.066C180.429,1450.742,180.82,1449.443,183.008,1449.443z M183.008,1455.234
		c1.973,0,2.197-1.221,2.197-2.725c0-1.514-0.225-2.734-2.197-2.734c-1.963,0-2.188,1.221-2.188,2.734
		C180.82,1454.013,181.045,1455.234,183.008,1455.234z"/>
	<path fill="#005A91" d="M191.465,1451.094c0-1.064-0.605-1.318-1.65-1.318c-0.879,0-1.631,0.146-2.188,0.488v5.244h-0.4v-5.996
		h0.186l0.176,0.469c0.547-0.342,1.514-0.527,2.227-0.527c1.465,0,2.051,0.469,2.051,1.67v4.385h-0.4V1451.094L191.465,1451.094z"/>
	<path fill="#005A91" d="M197.158,1445.908h0.42c-0.635,0.977-1.484,3.096-1.484,5.996s0.85,5.029,1.484,5.996h-0.42
		c-0.625-1.006-1.465-3.096-1.465-5.996S196.533,1446.914,197.158,1445.908z"/>
	<path fill="#005A91" d="M201.426,1448.271c-0.762,0-1.475,0.127-2.051,0.312v-0.342c0.498-0.176,1.25-0.312,2.041-0.312
		c2.217,0,2.744,0.938,2.744,1.973c0,1.26-0.537,2.002-4.844,5.283h4.932v0.312h-5.488v-0.215c4.434-3.467,5.01-4.15,5.01-5.391
		C203.769,1448.769,203.154,1448.271,201.426,1448.271z"/>
	<path fill="#005A91" d="M208.554,1455.566c-2.314,0-2.988-1.25-2.988-3.818c0-2.578,0.674-3.799,2.988-3.799
		c2.334,0,3.018,1.221,3.018,3.799C211.572,1454.316,210.888,1455.566,208.554,1455.566z M208.554,1448.271
		c-1.982,0-2.607,1.084-2.607,3.477c0,2.402,0.625,3.486,2.607,3.486s2.637-1.084,2.637-3.486
		C211.191,1449.355,210.537,1448.271,208.554,1448.271z"/>
	<path fill="#005A91" d="M214.892,1447.949v7.549h-0.371v-7.197l-1.836,0.4v-0.186l2.061-0.566H214.892L214.892,1447.949z"/>
	<path fill="#005A91" d="M217.275,1448.554v-0.332c0.518-0.156,1.318-0.273,1.865-0.273c2.168,0,2.754,0.947,2.754,2.275
		c0,0.908-0.4,1.943-1.738,2.09c1.523,0.029,2.08,1.143,2.08,2.227c0,1.377-0.605,2.52-3.008,2.52c-0.83,0-1.514-0.137-1.953-0.312
		v-0.322c0.459,0.156,1.104,0.312,1.953,0.312c2.197,0,2.617-1.035,2.617-2.197c0-1.484-0.801-2.031-2.529-2.031h-1.143v-0.342
		h1.143c1.797,0,2.188-0.996,2.188-1.943c0-1.104-0.342-1.953-2.363-1.953C218.467,1448.271,217.783,1448.418,217.275,1448.554z"/>
	<path fill="#005A91" d="M223.965,1457.9h-0.43c0.645-0.967,1.494-3.096,1.494-5.996s-0.85-5.02-1.494-5.996h0.43
		c0.625,1.006,1.465,3.096,1.465,5.996S224.59,1456.894,223.965,1457.9z"/>
	<path fill="#005A91" d="M230.01,1455.498h-0.449l0.479-0.762c-0.762-0.791-0.918-2.1-0.918-3.73c0-2.734,0.439-4.561,3.438-4.561
		c1.016,0,1.729,0.215,2.236,0.586l0.332-0.527h0.449l-0.488,0.801c0.752,0.781,0.898,2.08,0.898,3.701
		c0,2.734-0.42,4.561-3.428,4.561c-1.006,0-1.719-0.205-2.236-0.576L230.01,1455.498z M229.521,1451.006
		c0,1.553,0.146,2.686,0.732,3.389l4.346-7.031c-0.459-0.371-1.113-0.566-2.041-0.566
		C229.98,1446.797,229.521,1448.242,229.521,1451.006z M234.873,1447.636l-4.346,7.031c0.459,0.371,1.104,0.547,2.031,0.547
		c2.578,0,3.027-1.445,3.027-4.209C235.586,1449.472,235.449,1448.34,234.873,1447.636z"/>
	<path fill="#005A91" d="M241.65,1448.633c-0.762,0-1.475,0.186-1.982,0.352v-0.762c0.469-0.186,1.387-0.332,1.992-0.332
		c2.256,0,2.695,1.064,2.695,2.119c0,1.357-0.537,2.1-3.975,4.746h4.131v0.742h-5.332v-0.576c3.965-2.9,4.316-3.916,4.316-4.922
		C243.496,1449.111,243.027,1448.633,241.65,1448.633z"/>
	<path fill="#005A91" d="M245.84,1457.002l3.652-8.252h-4.355v-0.742h5.195v0.576l-3.535,8.418H245.84z"/>
	<path fill="#005A91" d="M254.219,1453.857c0,0.781,0.469,1.025,1.25,1.025c0.811,0,1.23-0.137,1.689-0.391v-4.98h0.879v5.996
		h-0.488l-0.186-0.508c-0.596,0.42-1.23,0.625-1.895,0.625c-0.527,0-0.938-0.088-1.25-0.234v3.105h-0.879v-8.984h0.879V1453.857
		L254.219,1453.857L254.219,1453.857z"/>
	<path fill="#005A91" d="M260.742,1453.828c-0.137,0.127-0.234,0.293-0.234,0.439c0,0.303,0.146,0.43,0.469,0.469l2.139,0.244
		c1.172,0.117,1.709,0.557,1.709,1.602c0,1.465-1.523,2.041-3.252,2.041c-1.758,0-2.812-0.498-2.812-1.816
		c0-0.811,0.596-1.357,1.289-1.582v-0.01c-0.234-0.156-0.4-0.4-0.4-0.791c0-0.342,0.215-0.615,0.479-0.811
		c-0.752-0.4-0.996-1.133-0.996-1.973c0-1.23,0.547-2.256,2.441-2.256c0.381,0,0.713,0.049,0.996,0.117h2.129v0.459l-1.045,0.283
		c0.264,0.381,0.361,0.869,0.361,1.396c0,1.23-0.547,2.246-2.441,2.246C261.26,1453.896,260.976,1453.867,260.742,1453.828z
		 M261.103,1455.439c-0.82,0.186-1.523,0.557-1.523,1.318c0,0.889,0.703,1.143,1.992,1.143c1.25,0,2.422-0.303,2.422-1.318
		c0-0.615-0.293-0.85-1.064-0.938L261.103,1455.439z M263.193,1451.64c0-0.791-0.156-1.523-1.621-1.523s-1.631,0.732-1.631,1.523
		s0.166,1.523,1.631,1.523S263.193,1452.431,263.193,1451.64z"/>
	<path fill="#005A91" d="M264.736,1457.969l4.346-12.246H270l-4.346,12.246H264.736z"/>
	<path fill="#005A91" d="M278.017,1451.152c0-0.781-0.479-1.025-1.191-1.025c-0.771,0-1.201,0.146-1.699,0.4
		c0.049,0.195,0.068,0.391,0.068,0.625v4.346h-0.869v-4.346c0-0.781-0.479-1.025-1.191-1.025c-0.732,0-1.143,0.127-1.631,0.361v5.02
		h-0.879v-5.996h0.488l0.186,0.488c0.605-0.42,1.26-0.615,1.836-0.615c0.83,0,1.426,0.225,1.748,0.684
		c0.654-0.43,1.318-0.684,1.943-0.684c1.338,0,2.07,0.596,2.07,1.797v4.326h-0.879V1451.152L278.017,1451.152z"/>
	<path fill="#005A91" d="M280.205,1451.269v-0.742c0.889,0.254,1.543,0.273,2.051,0.273c0.986,0,1.484-0.312,1.484-0.82
		c0-0.586-0.244-0.781-1.123-0.781h-1.465v-0.703h1.445c0.742,0,0.947-0.234,0.947-0.703c0-0.41-0.42-0.664-1.318-0.664
		c-0.625,0-1.123,0.049-1.934,0.244v-0.732c0.439-0.166,1.191-0.254,1.924-0.254c1.426,0,2.139,0.479,2.139,1.406
		c0,0.518-0.273,0.84-0.537,0.957c0.41,0.146,0.771,0.557,0.771,1.25c0,0.908-0.762,1.533-2.354,1.533
		C281.513,1451.533,280.644,1451.435,280.205,1451.269z"/>
</g>
<g>
	<line fill="none" stroke="#F5F0ED" stroke-width="2" stroke-miterlimit="10" x1="0.381" y1="2000" x2="38.379" y2="2000"/>
	<g>
		<g>
			<line fill="none" stroke="#F5F0ED" stroke-width="4" stroke-miterlimit="10" x1="0.381" y1="1900" x2="70.381" y2="1900"/>
			<g>
				<line fill="none" stroke="#F5F0ED" stroke-width="2" stroke-miterlimit="10" x1="0.381" y1="1980" x2="38.379" y2="1980"/>
				<line fill="none" stroke="#F5F0ED" stroke-width="2" stroke-miterlimit="10" x1="0.381" y1="1960" x2="38.379" y2="1960"/>
				<line fill="none" stroke="#F5F0ED" stroke-width="2" stroke-miterlimit="10" x1="0.381" y1="1940" x2="38.379" y2="1940"/>
				<line fill="none" stroke="#F5F0ED" stroke-width="2" stroke-miterlimit="10" x1="0.381" y1="1920" x2="38.379" y2="1920"/>
			</g>
		</g>
		<g>
			<line fill="none" stroke="#F5F0ED" stroke-width="4" stroke-miterlimit="10" x1="0.381" y1="1800" x2="70.381" y2="1800"/>
			<g>
				<line fill="none" stroke="#F5F0ED" stroke-width="2" stroke-miterlimit="10" x1="0.381" y1="1880" x2="38.379" y2="1880"/>
				<line fill="none" stroke="#F5F0ED" stroke-width="2" stroke-miterlimit="10" x1="0.381" y1="1860" x2="38.379" y2="1860"/>
				<line fill="none" stroke="#F5F0ED" stroke-width="2" stroke-miterlimit="10" x1="0.381" y1="1840" x2="38.379" y2="1840"/>
				<line fill="none" stroke="#F5F0ED" stroke-width="2" stroke-miterlimit="10" x1="0.381" y1="1820" x2="38.379" y2="1820"/>
			</g>
		</g>
		<g>
			<line fill="none" stroke="#F5F0ED" stroke-width="4" stroke-miterlimit="10" x1="0.381" y1="1700" x2="70.381" y2="1700"/>
			<g>
				<line fill="none" stroke="#F5F0ED" stroke-width="2" stroke-miterlimit="10" x1="0.381" y1="1780" x2="38.379" y2="1780"/>
				<line fill="none" stroke="#F5F0ED" stroke-width="2" stroke-miterlimit="10" x1="0.381" y1="1760" x2="38.379" y2="1760"/>
				<line fill="none" stroke="#F5F0ED" stroke-width="2" stroke-miterlimit="10" x1="0.381" y1="1740" x2="38.379" y2="1740"/>
				<line fill="none" stroke="#F5F0ED" stroke-width="2" stroke-miterlimit="10" x1="0.381" y1="1720" x2="38.379" y2="1720"/>
			</g>
		</g>
		<g>
			<line fill="none" stroke="#F5F0ED" stroke-width="4" stroke-miterlimit="10" x1="0.381" y1="1600" x2="70.381" y2="1600"/>
			<g>
				<line fill="none" stroke="#F5F0ED" stroke-width="2" stroke-miterlimit="10" x1="0.381" y1="1680" x2="38.379" y2="1680"/>
				<line fill="none" stroke="#F5F0ED" stroke-width="2" stroke-miterlimit="10" x1="0.381" y1="1660" x2="38.379" y2="1660"/>
				<line fill="none" stroke="#F5F0ED" stroke-width="2" stroke-miterlimit="10" x1="0.381" y1="1640" x2="38.379" y2="1640"/>
				<line fill="none" stroke="#F5F0ED" stroke-width="2" stroke-miterlimit="10" x1="0.381" y1="1620" x2="38.379" y2="1620"/>
			</g>
		</g>
		<g>
			<line fill="none" stroke="#F5F0ED" stroke-width="4" stroke-miterlimit="10" x1="0.381" y1="1500" x2="70.381" y2="1500"/>
			<g>
				<line fill="none" stroke="#F5F0ED" stroke-width="2" stroke-miterlimit="10" x1="0.381" y1="1580" x2="38.379" y2="1580"/>
				<line fill="none" stroke="#F5F0ED" stroke-width="2" stroke-miterlimit="10" x1="0.381" y1="1560" x2="38.379" y2="1560"/>
				<line fill="none" stroke="#F5F0ED" stroke-width="2" stroke-miterlimit="10" x1="0.381" y1="1540" x2="38.379" y2="1540"/>
				<line fill="none" stroke="#F5F0ED" stroke-width="2" stroke-miterlimit="10" x1="0.381" y1="1520" x2="38.379" y2="1520"/>
			</g>
		</g>
		<g>
			<line fill="none" stroke="#F5F0ED" stroke-width="4" stroke-miterlimit="10" x1="0.381" y1="1400" x2="70.381" y2="1400"/>
			<g>
				<line fill="none" stroke="#F5F0ED" stroke-width="2" stroke-miterlimit="10" x1="0.381" y1="1480" x2="38.379" y2="1480"/>
				<line fill="none" stroke="#F5F0ED" stroke-width="2" stroke-miterlimit="10" x1="0.381" y1="1460" x2="38.379" y2="1460"/>
				<line fill="none" stroke="#F5F0ED" stroke-width="2" stroke-miterlimit="10" x1="0.381" y1="1440" x2="38.379" y2="1440"/>
				<line fill="none" stroke="#F5F0ED" stroke-width="2" stroke-miterlimit="10" x1="0.381" y1="1420" x2="38.379" y2="1420"/>
			</g>
		</g>
		<g>
			<line fill="none" stroke="#F5F0ED" stroke-width="4" stroke-miterlimit="10" x1="0.381" y1="1300" x2="70.381" y2="1300"/>
			<g>
				<line fill="none" stroke="#F5F0ED" stroke-width="2" stroke-miterlimit="10" x1="0.381" y1="1380" x2="38.379" y2="1380"/>
				<line fill="none" stroke="#F5F0ED" stroke-width="2" stroke-miterlimit="10" x1="0.381" y1="1360" x2="38.379" y2="1360"/>
				<line fill="none" stroke="#F5F0ED" stroke-width="2" stroke-miterlimit="10" x1="0.381" y1="1340" x2="38.379" y2="1340"/>
				<line fill="none" stroke="#F5F0ED" stroke-width="2" stroke-miterlimit="10" x1="0.381" y1="1320" x2="38.379" y2="1320"/>
			</g>
		</g>
		<g>
			<line fill="none" stroke="#F5F0ED" stroke-width="4" stroke-miterlimit="10" x1="0.381" y1="1200" x2="70.381" y2="1200"/>
			<g>
				<line fill="none" stroke="#F5F0ED" stroke-width="2" stroke-miterlimit="10" x1="0.381" y1="1280" x2="38.379" y2="1280"/>
				<line fill="none" stroke="#F5F0ED" stroke-width="2" stroke-miterlimit="10" x1="0.381" y1="1260" x2="38.379" y2="1260"/>
				<line fill="none" stroke="#F5F0ED" stroke-width="2" stroke-miterlimit="10" x1="0.381" y1="1240" x2="38.379" y2="1240"/>
				<line fill="none" stroke="#F5F0ED" stroke-width="2" stroke-miterlimit="10" x1="0.381" y1="1220" x2="38.379" y2="1220"/>
			</g>
		</g>
		<g>
			<line fill="none" stroke="#F5F0ED" stroke-width="4" stroke-miterlimit="10" x1="0.381" y1="1100" x2="70.381" y2="1100"/>
			<g>
				<line fill="none" stroke="#F5F0ED" stroke-width="2" stroke-miterlimit="10" x1="0.381" y1="1180" x2="38.379" y2="1180"/>
				<line fill="none" stroke="#F5F0ED" stroke-width="2" stroke-miterlimit="10" x1="0.381" y1="1160" x2="38.379" y2="1160"/>
				<line fill="none" stroke="#F5F0ED" stroke-width="2" stroke-miterlimit="10" x1="0.381" y1="1140" x2="38.379" y2="1140"/>
				<line fill="none" stroke="#F5F0ED" stroke-width="2" stroke-miterlimit="10" x1="0.381" y1="1120" x2="38.379" y2="1120"/>
			</g>
		</g>
		<g>
			<line fill="none" stroke="#F5F0ED" stroke-width="4" stroke-miterlimit="10" x1="0.381" y1="1000" x2="70.381" y2="1000"/>
			<g>
				<line fill="none" stroke="#F5F0ED" stroke-width="2" stroke-miterlimit="10" x1="0.381" y1="1080" x2="38.379" y2="1080"/>
				<line fill="none" stroke="#F5F0ED" stroke-width="2" stroke-miterlimit="10" x1="0.381" y1="1060" x2="38.379" y2="1060"/>
				<line fill="none" stroke="#F5F0ED" stroke-width="2" stroke-miterlimit="10" x1="0.381" y1="1040" x2="38.379" y2="1040"/>
				<line fill="none" stroke="#F5F0ED" stroke-width="2" stroke-miterlimit="10" x1="0.381" y1="1020" x2="38.379" y2="1020"/>
			</g>
		</g>
		<g>
			<line fill="none" stroke="#F5F0ED" stroke-width="4" stroke-miterlimit="10" x1="0.381" y1="900" x2="70.381" y2="900"/>
			<g>
				<line fill="none" stroke="#F5F0ED" stroke-width="2" stroke-miterlimit="10" x1="0.381" y1="980" x2="38.379" y2="980"/>
				<line fill="none" stroke="#F5F0ED" stroke-width="2" stroke-miterlimit="10" x1="0.381" y1="960" x2="38.379" y2="960"/>
				<line fill="none" stroke="#F5F0ED" stroke-width="2" stroke-miterlimit="10" x1="0.381" y1="940" x2="38.379" y2="940"/>
				<line fill="none" stroke="#F5F0ED" stroke-width="2" stroke-miterlimit="10" x1="0.381" y1="920" x2="38.379" y2="920"/>
			</g>
		</g>
		<g>
			<line fill="none" stroke="#F5F0ED" stroke-width="4" stroke-miterlimit="10" x1="0.381" y1="800" x2="70.381" y2="800"/>
			<g>
				<line fill="none" stroke="#F5F0ED" stroke-width="2" stroke-miterlimit="10" x1="0.381" y1="880" x2="38.379" y2="880"/>
				<line fill="none" stroke="#F5F0ED" stroke-width="2" stroke-miterlimit="10" x1="0.381" y1="860" x2="38.379" y2="860"/>
				<line fill="none" stroke="#F5F0ED" stroke-width="2" stroke-miterlimit="10" x1="0.381" y1="840" x2="38.379" y2="840"/>
				<line fill="none" stroke="#F5F0ED" stroke-width="2" stroke-miterlimit="10" x1="0.381" y1="820" x2="38.379" y2="820"/>
			</g>
		</g>
		<g>
			<line fill="none" stroke="#F5F0ED" stroke-width="4" stroke-miterlimit="10" x1="0.381" y1="700" x2="70.381" y2="700"/>
			<g>
				<line fill="none" stroke="#F5F0ED" stroke-width="2" stroke-miterlimit="10" x1="0.381" y1="780" x2="38.379" y2="780"/>
				<line fill="none" stroke="#F5F0ED" stroke-width="2" stroke-miterlimit="10" x1="0.381" y1="760" x2="38.379" y2="760"/>
				<line fill="none" stroke="#F5F0ED" stroke-width="2" stroke-miterlimit="10" x1="0.381" y1="740" x2="38.379" y2="740"/>
				<line fill="none" stroke="#F5F0ED" stroke-width="2" stroke-miterlimit="10" x1="0.381" y1="720" x2="38.379" y2="720"/>
			</g>
		</g>
		<g>
			<line fill="none" stroke="#F5F0ED" stroke-width="4" stroke-miterlimit="10" x1="0.381" y1="600" x2="70.381" y2="600"/>
			<g>
				<line fill="none" stroke="#F5F0ED" stroke-width="2" stroke-miterlimit="10" x1="0.381" y1="680" x2="38.379" y2="680"/>
				<line fill="none" stroke="#F5F0ED" stroke-width="2" stroke-miterlimit="10" x1="0.381" y1="660" x2="38.379" y2="660"/>
				<line fill="none" stroke="#F5F0ED" stroke-width="2" stroke-miterlimit="10" x1="0.381" y1="640" x2="38.379" y2="640"/>
				<line fill="none" stroke="#F5F0ED" stroke-width="2" stroke-miterlimit="10" x1="0.381" y1="620" x2="38.379" y2="620"/>
			</g>
		</g>
		<g>
			<line fill="none" stroke="#F5F0ED" stroke-width="4" stroke-miterlimit="10" x1="0.381" y1="500" x2="70.381" y2="500"/>
			<g>
				<line fill="none" stroke="#F5F0ED" stroke-width="2" stroke-miterlimit="10" x1="0.381" y1="580" x2="38.379" y2="580"/>
				<line fill="none" stroke="#F5F0ED" stroke-width="2" stroke-miterlimit="10" x1="0.381" y1="560" x2="38.379" y2="560"/>
				<line fill="none" stroke="#F5F0ED" stroke-width="2" stroke-miterlimit="10" x1="0.381" y1="540" x2="38.379" y2="540"/>
				<line fill="none" stroke="#F5F0ED" stroke-width="2" stroke-miterlimit="10" x1="0.381" y1="520" x2="38.379" y2="520"/>
			</g>
		</g>
		<g>
			<line fill="none" stroke="#F5F0ED" stroke-width="4" stroke-miterlimit="10" x1="0.381" y1="400" x2="70.381" y2="400"/>
			<g>
				<line fill="none" stroke="#F5F0ED" stroke-width="2" stroke-miterlimit="10" x1="0.381" y1="480" x2="38.379" y2="480"/>
				<line fill="none" stroke="#F5F0ED" stroke-width="2" stroke-miterlimit="10" x1="0.381" y1="460" x2="38.379" y2="460"/>
				<line fill="none" stroke="#F5F0ED" stroke-width="2" stroke-miterlimit="10" x1="0.381" y1="440" x2="38.379" y2="440"/>
				<line fill="none" stroke="#F5F0ED" stroke-width="2" stroke-miterlimit="10" x1="0.381" y1="420" x2="38.379" y2="420"/>
			</g>
		</g>
		<g>
			<line fill="none" stroke="#F5F0ED" stroke-width="4" stroke-miterlimit="10" x1="0.381" y1="300" x2="70.381" y2="300"/>
			<g>
				<line fill="none" stroke="#F5F0ED" stroke-width="2" stroke-miterlimit="10" x1="0.381" y1="380" x2="38.379" y2="380"/>
				<line fill="none" stroke="#F5F0ED" stroke-width="2" stroke-miterlimit="10" x1="0.381" y1="360" x2="38.379" y2="360"/>
				<line fill="none" stroke="#F5F0ED" stroke-width="2" stroke-miterlimit="10" x1="0.381" y1="340" x2="38.379" y2="340"/>
				<line fill="none" stroke="#F5F0ED" stroke-width="2" stroke-miterlimit="10" x1="0.381" y1="320" x2="38.379" y2="320"/>
			</g>
		</g>
		<g>
			<line fill="none" stroke="#F5F0ED" stroke-width="4" stroke-miterlimit="10" x1="0.381" y1="200" x2="70.381" y2="200"/>
			<g>
				<line fill="none" stroke="#F5F0ED" stroke-width="2" stroke-miterlimit="10" x1="0.381" y1="280" x2="38.379" y2="280"/>
				<line fill="none" stroke="#F5F0ED" stroke-width="2" stroke-miterlimit="10" x1="0.381" y1="260" x2="38.379" y2="260"/>
				<line fill="none" stroke="#F5F0ED" stroke-width="2" stroke-miterlimit="10" x1="0.381" y1="240" x2="38.379" y2="240"/>
				<line fill="none" stroke="#F5F0ED" stroke-width="2" stroke-miterlimit="10" x1="0.381" y1="220" x2="38.379" y2="220"/>
			</g>
		</g>
		<g>
			<line fill="none" stroke="#F5F0ED" stroke-width="4" stroke-miterlimit="10" x1="0.381" y1="100" x2="70.381" y2="100"/>
			<g>
				<line fill="none" stroke="#F5F0ED" stroke-width="2" stroke-miterlimit="10" x1="0.381" y1="180" x2="38.379" y2="180"/>
				<line fill="none" stroke="#F5F0ED" stroke-width="2" stroke-miterlimit="10" x1="0.381" y1="160" x2="38.379" y2="160"/>
				<line fill="none" stroke="#F5F0ED" stroke-width="2" stroke-miterlimit="10" x1="0.381" y1="140" x2="38.379" y2="140"/>
				<line fill="none" stroke="#F5F0ED" stroke-width="2" stroke-miterlimit="10" x1="0.381" y1="120" x2="38.379" y2="120"/>
			</g>
		</g>
		<g>
			<line fill="none" stroke="#F5F0ED" stroke-width="4" stroke-miterlimit="10" x1="0.381" y1="0" x2="70.381" y2="0"/>
			<g>
				<line fill="none" stroke="#F5F0ED" stroke-width="2" stroke-miterlimit="10" x1="0.381" y1="80" x2="38.379" y2="80"/>
				<line fill="none" stroke="#F5F0ED" stroke-width="2" stroke-miterlimit="10" x1="0.381" y1="60" x2="38.379" y2="60"/>
				<line fill="none" stroke="#F5F0ED" stroke-width="2" stroke-miterlimit="10" x1="0.381" y1="40" x2="38.379" y2="40"/>
				<line fill="none" stroke="#F5F0ED" stroke-width="2" stroke-miterlimit="10" x1="0.381" y1="20" x2="38.379" y2="20"/>
			</g>
		</g>
	</g>
</g>
</svg>
